# This file uses centimeters as units for non-parametric coordinates.

mtllib Headstone_07.mtl
g default
v -23.909500 32.205090 8.666286
v 22.959000 32.205090 8.666286
v 25.671951 113.271965 9.178089
v -26.622452 113.271965 9.178089
v -26.622452 113.271965 -11.827711
v 25.671951 113.271965 -11.827711
v 22.959000 32.205090 -11.315907
v -23.909500 32.205090 -11.315907
v -59.466660 0.078112 24.022316
v 59.463821 0.078112 24.022316
v -59.466660 0.078112 -26.671940
v 59.463821 0.078112 -26.671940
v -50.590652 32.268032 20.238913
v -47.870377 34.405014 17.856701
v 47.867538 34.405014 17.856701
v 50.587830 32.268032 20.238913
v -47.870377 34.405014 -20.506325
v -50.590652 32.268032 -22.888536
v 47.696167 34.405014 -20.334953
v 50.587830 32.268032 -22.888536
v 13.936844 23.025381 20.728792
v 7.610580 27.569754 20.213081
v -1.031250 29.233112 20.024319
v -9.673080 27.569754 20.213081
v -15.999344 23.025381 20.728792
v -18.314926 16.817661 21.433266
v -15.999344 10.609935 22.137737
v -9.673080 6.065568 22.653448
v -1.031250 4.402213 22.842213
v 7.610580 6.065568 22.653448
v 13.936844 10.609935 22.137737
v 16.252426 16.817661 21.433266
v 13.936844 23.494230 24.110970
v 7.610580 28.038609 23.595261
v -1.031250 29.701962 23.406496
v -9.673080 28.038609 23.595261
v -15.999344 23.494230 24.110970
v -18.314926 17.286510 24.815443
v -15.999344 11.078786 25.519918
v -9.673080 6.534419 26.035627
v -1.031250 4.871062 26.224390
v 7.610580 6.534419 26.035627
v 13.936844 11.078786 25.519918
v 16.252426 17.286510 24.815443
v 12.267929 22.371592 24.238373
v 6.647034 26.094118 23.815924
v -1.031250 27.456675 23.661299
v -8.709534 26.094118 23.815924
v -14.330429 22.371592 24.238373
v -16.387802 17.286510 24.815443
v -14.330429 12.201432 25.392515
v -8.709534 8.478896 25.814962
v -1.031250 7.116351 25.969587
v 6.647034 8.478896 25.814962
v 12.267929 12.201432 25.392515
v 14.325302 17.286510 24.815443
v 12.267929 22.092321 22.445787
v 6.647034 25.814852 22.023340
v -1.031250 27.177408 21.868715
v -8.709534 25.814852 22.023340
v -14.330429 22.092321 22.445787
v -16.387802 17.007246 23.022858
v -14.330429 11.922164 23.599928
v -8.709534 8.199626 24.022375
v -1.031250 6.837087 24.177002
v 6.647034 8.199626 24.022375
v 12.267929 11.922164 23.599928
v 14.325302 17.007246 23.022858
v -33.445549 119.098923 14.101843
v 32.543625 119.140411 14.106280
v 29.744186 32.262768 12.734218
v 29.065735 32.257000 13.349294
v -30.016235 32.257000 13.349294
v -30.694687 32.262768 12.734218
v -33.445549 119.098923 -16.751465
v 32.543625 119.140411 -16.755903
v 29.065735 32.257000 -15.998916
v 29.744186 32.262768 -15.383840
v -30.694687 32.262768 -15.383840
v -30.016235 32.257000 -15.998916
v 32.435699 119.737404 13.469448
v 32.893188 119.438934 13.787832
v 33.210426 118.931068 13.462670
v 33.210426 118.931068 -16.112293
v 32.893188 119.438934 -16.437454
v 32.435699 119.737404 -16.119070
v -34.160927 118.931068 13.462670
v -33.835602 119.432030 13.771910
v -33.386196 119.737404 13.469448
v -33.386196 119.737404 -16.119070
v -33.835602 119.432030 -16.421532
v -34.160927 118.931068 -16.112293
v -26.622452 113.271965 -14.441839
v -28.396261 114.786804 -16.290186
v 25.671951 113.271965 -14.441840
v 27.359144 114.712837 -16.282274
v 22.959000 32.205090 -13.770593
v 24.588903 32.218945 -15.564820
v -25.539404 32.218945 -15.564820
v -23.909500 32.205090 -13.770593
v 24.588903 32.218945 12.915198
v 22.959000 32.205090 11.120972
v 25.671951 113.271965 11.792217
v 27.445759 114.786804 13.640563
v -26.622452 113.271965 11.792217
v -28.309643 114.712837 13.632650
v -23.909500 32.205090 11.120972
v -25.539404 32.218945 12.915198
vt 0.304274 0.943230
vt 0.304274 0.755588
vt 0.423424 0.769592
vt 0.423424 0.929226
vt 0.431334 0.920409
vt 0.431334 0.779044
vt 0.169797 0.937897
vt 0.169797 0.750255
vt 0.288946 0.764259
vt 0.288946 0.923893
vt 0.296856 0.773076
vt 0.296856 0.915075
vt 0.651148 0.768993
vt 0.653756 0.746015
vt 0.666274 0.747751
vt 0.663667 0.770728
vt 0.656363 0.723038
vt 0.668882 0.724773
vt 0.649239 0.785814
vt 0.661758 0.787549
vt 0.658272 0.706217
vt 0.670791 0.707952
vt 0.634433 0.723038
vt 0.637040 0.746015
vt 0.624521 0.747751
vt 0.621914 0.724773
vt 0.639648 0.768993
vt 0.627129 0.770728
vt 0.632524 0.706217
vt 0.620005 0.707952
vt 0.641557 0.785814
vt 0.629038 0.787549
vt 0.705747 0.758674
vt 0.703612 0.739851
vt 0.710247 0.738818
vt 0.712383 0.757640
vt 0.701476 0.721029
vt 0.708111 0.719996
vt 0.707311 0.772452
vt 0.713946 0.771419
vt 0.699912 0.707251
vt 0.706547 0.706217
vt 0.690944 0.721029
vt 0.688808 0.739851
vt 0.682173 0.738818
vt 0.684309 0.719996
vt 0.686672 0.758674
vt 0.680037 0.757640
vt 0.692508 0.707251
vt 0.685873 0.706217
vt 0.685109 0.772452
vt 0.678473 0.771419
vt 0.850744 0.322811
vt 0.741273 0.322811
vt 0.743970 0.002012
vt 0.848047 0.002012
vt 0.741248 0.325795
vt 0.850769 0.325795
vt 0.740070 0.324690
vt 0.738891 0.323586
vt 0.741693 0.001991
vt 0.853126 0.323586
vt 0.851947 0.324690
vt 0.850324 0.001991
vt 0.729892 0.322811
vt 0.620422 0.322811
vt 0.623118 0.002012
vt 0.727196 0.002012
vt 0.729917 0.325795
vt 0.620397 0.325795
vt 0.619277 0.324665
vt 0.618056 0.323432
vt 0.620841 0.001991
vt 0.732258 0.323432
vt 0.731037 0.324665
vt 0.729472 0.001991
vt 0.436560 0.746263
vt 0.439045 0.446198
vt 0.448131 0.446198
vt 0.446236 0.746263
vt 0.429748 0.751597
vt 0.432404 0.446249
vt 0.487899 0.380490
vt 0.490384 0.680555
vt 0.480708 0.680555
vt 0.478813 0.380490
vt 0.497226 0.686162
vt 0.494541 0.380541
vt 0.463352 0.380490
vt 0.465837 0.680555
vt 0.456161 0.680555
vt 0.454266 0.380490
vt 0.469993 0.380541
vt 0.472678 0.686162
vt 0.412042 0.746263
vt 0.414527 0.446198
vt 0.423613 0.446198
vt 0.421718 0.746263
vt 0.405230 0.751597
vt 0.407886 0.446249
vt 0.001992 0.442206
vt 0.001992 0.001991
vt 0.189635 0.001991
vt 0.189635 0.442206
vt 0.459264 0.366429
vt 0.459264 0.012060
vt 0.600628 0.012694
vt 0.601263 0.366429
vt 0.450446 0.376498
vt 0.450446 0.001991
vt 0.610080 0.376498
vt 0.610080 0.001991
vt 0.733869 0.706217
vt 0.734568 0.738204
vt 0.722049 0.738204
vt 0.721350 0.706217
vt 0.733869 0.770191
vt 0.721350 0.770191
vt 0.740840 0.770191
vt 0.741539 0.738204
vt 0.754057 0.738204
vt 0.753359 0.770191
vt 0.740840 0.706217
vt 0.753359 0.706217
vt 0.767537 0.655514
vt 0.766964 0.683935
vt 0.760329 0.683935
vt 0.760902 0.655514
vt 0.767537 0.712356
vt 0.760902 0.712356
vt 0.774544 0.712356
vt 0.773972 0.683935
vt 0.780607 0.683935
vt 0.781180 0.712356
vt 0.774544 0.655514
vt 0.781180 0.655514
vt 0.113870 0.995585
vt 0.004349 0.995585
vt 0.004349 0.751948
vt 0.113870 0.751948
vt 0.003230 0.997248
vt 0.002008 0.995804
vt 0.001992 0.751548
vt 0.003171 0.750255
vt 0.116211 0.995804
vt 0.114989 0.997248
vt 0.115048 0.750255
vt 0.116227 0.751548
vt 0.129864 0.950065
vt 0.129864 0.756500
vt 0.139540 0.756500
vt 0.139540 0.950065
vt 0.123022 0.956631
vt 0.123051 0.750255
vt 0.156085 0.756820
vt 0.156085 0.950386
vt 0.146409 0.950386
vt 0.146409 0.756820
vt 0.162927 0.750255
vt 0.162898 0.956631
vt 0.215571 0.446198
vt 0.389053 0.446198
vt 0.399095 0.746263
vt 0.205529 0.746263
vt 0.005829 0.446198
vt 0.199394 0.446198
vt 0.189352 0.746263
vt 0.015871 0.746263
vt 0.197082 0.442206
vt 0.197082 0.001991
vt 0.316232 0.034845
vt 0.316232 0.409352
vt 0.323764 0.409352
vt 0.323764 0.034845
vt 0.442914 0.001991
vt 0.442914 0.442206
vt 0.594615 0.713832
vt 0.608394 0.734638
vt 0.613438 0.763058
vt 0.608394 0.791479
vt 0.594615 0.812285
vt 0.575793 0.819900
vt 0.556971 0.812285
vt 0.543192 0.791479
vt 0.538149 0.763058
vt 0.543192 0.734638
vt 0.556971 0.713832
vt 0.575793 0.706217
vt 0.507685 0.764159
vt 0.524506 0.787575
vt 0.517308 0.791142
vt 0.503530 0.770336
vt 0.530663 0.819563
vt 0.522352 0.819563
vt 0.484707 0.755588
vt 0.484707 0.762721
vt 0.524506 0.851550
vt 0.517308 0.847983
vt 0.461730 0.764159
vt 0.465885 0.770336
vt 0.507685 0.874966
vt 0.503530 0.868789
vt 0.444909 0.787575
vt 0.452106 0.791142
vt 0.484707 0.883537
vt 0.484707 0.876404
vt 0.438752 0.819563
vt 0.447063 0.819563
vt 0.461730 0.874966
vt 0.465885 0.868789
vt 0.444909 0.851550
vt 0.452106 0.847983
vt 0.753752 0.329940
vt 0.998008 0.329787
vt 0.978818 0.346175
vt 0.772442 0.345901
vt 0.985135 0.651382
vt 0.968564 0.651523
vt 0.766446 0.651382
vt 0.783016 0.651523
vt 0.734743 0.380630
vt 0.747617 0.702225
vt 0.728747 0.686111
vt 0.718173 0.380490
vt 0.503361 0.702072
vt 0.522371 0.685837
vt 0.516054 0.380630
vt 0.532625 0.380490
vn 0.000000 -0.006313 0.999980
vn 0.000000 -0.006313 0.999980
vn 0.000000 -0.006313 0.999980
vn 0.000000 -0.006313 0.999980
vn 0.000000 -0.006313 -0.999980
vn 0.000000 -0.006313 -0.999980
vn 0.000000 -0.006313 -0.999980
vn 0.000000 -0.006313 -0.999980
vn 0.000000 -1.000000 0.000000
vn 0.000000 -1.000000 0.000000
vn 0.000000 -1.000000 0.000000
vn 0.000000 -1.000000 0.000000
vn -0.617755 0.786371 0.000000
vn -0.617755 0.786371 0.000000
vn -0.617755 0.786371 0.000000
vn -0.617755 0.786371 0.000000
vn 0.000000 0.744382 0.667754
vn 0.000000 0.744382 0.667754
vn 0.000000 0.744382 0.667754
vn 0.000000 0.744382 0.667754
vn 0.605855 0.795574 -0.001277
vn 0.605855 0.795574 -0.001277
vn 0.605856 0.795574 -0.001277
vn 0.605855 0.795574 -0.001277
vn 0.000570 0.755981 -0.654593
vn 0.000570 0.755981 -0.654593
vn 0.000570 0.755981 -0.654593
vn 0.000570 0.755981 -0.654593
vn 0.000000 0.116730 0.993164
vn 0.000000 0.116730 0.993164
vn 0.000000 0.116730 0.993164
vn 0.000000 0.116730 0.993164
vn 0.000000 1.000000 0.000000
vn 0.000000 1.000000 0.000000
vn 0.000000 1.000000 0.000000
vn 0.000000 1.000000 0.000000
vn 0.000000 0.116730 -0.993164
vn 0.000000 0.116730 -0.993164
vn 0.000000 0.116730 -0.993164
vn 0.000000 0.116730 -0.993164
vn 0.964023 0.265818 0.000000
vn 0.964023 0.265818 0.000000
vn 0.964023 0.265818 0.000000
vn 0.964023 0.265818 0.000000
vn -0.964023 0.265819 0.000000
vn -0.964023 0.265819 0.000000
vn -0.964023 0.265819 0.000000
vn -0.964023 0.265819 0.000000
vn 0.585758 0.802809 -0.111288
vn 0.585758 0.802809 -0.111288
vn 0.585758 0.802809 -0.111288
vn 0.585758 0.802809 -0.111288
vn 0.190121 0.972461 -0.134807
vn 0.190121 0.972461 -0.134807
vn 0.190121 0.972461 -0.134807
vn 0.190121 0.972461 -0.134807
vn -0.190121 0.972461 -0.134807
vn -0.190121 0.972461 -0.134807
vn -0.190121 0.972461 -0.134807
vn -0.190121 0.972461 -0.134807
vn -0.585758 0.802809 -0.111289
vn -0.585758 0.802809 -0.111289
vn -0.585758 0.802809 -0.111289
vn -0.585758 0.802809 -0.111289
vn -0.937633 0.344335 -0.047733
vn -0.937633 0.344335 -0.047733
vn -0.937633 0.344335 -0.047733
vn -0.937633 0.344335 -0.047733
vn -0.937633 -0.344335 0.047733
vn -0.937633 -0.344335 0.047733
vn -0.937633 -0.344335 0.047733
vn -0.937633 -0.344335 0.047733
vn -0.585757 -0.802810 0.111289
vn -0.585757 -0.802810 0.111289
vn -0.585757 -0.802810 0.111289
vn -0.585757 -0.802810 0.111289
vn -0.190121 -0.972461 0.134806
vn -0.190121 -0.972461 0.134806
vn -0.190121 -0.972461 0.134806
vn -0.190121 -0.972461 0.134806
vn 0.190121 -0.972461 0.134806
vn 0.190121 -0.972461 0.134806
vn 0.190121 -0.972461 0.134806
vn 0.190121 -0.972461 0.134806
vn 0.585757 -0.802810 0.111289
vn 0.585757 -0.802810 0.111289
vn 0.585757 -0.802810 0.111289
vn 0.585757 -0.802810 0.111289
vn 0.937633 -0.344335 0.047733
vn 0.937633 -0.344335 0.047733
vn 0.937633 -0.344335 0.047733
vn 0.937633 -0.344335 0.047733
vn 0.937633 0.344335 -0.047733
vn 0.937633 0.344335 -0.047733
vn 0.937633 0.344335 -0.047733
vn 0.937633 0.344335 -0.047733
vn 0.000000 0.112760 0.993622
vn 0.000000 0.112760 0.993622
vn 0.000000 0.112760 0.993622
vn 0.000000 0.112760 0.993622
vn 0.000000 0.112760 0.993622
vn 0.000000 0.112760 0.993622
vn 0.000000 0.112760 0.993622
vn 0.000000 0.112760 0.993622
vn 0.000000 0.112760 0.993622
vn 0.000000 0.112760 0.993622
vn 0.000000 0.112760 0.993622
vn 0.000000 0.112760 0.993622
vn 0.000000 0.112759 0.993622
vn 0.000000 0.112759 0.993622
vn 0.000000 0.112759 0.993622
vn 0.000000 0.112759 0.993622
vn -0.000000 0.112758 0.993622
vn -0.000000 0.112759 0.993622
vn -0.000000 0.112758 0.993622
vn -0.000000 0.112759 0.993622
vn 0.000000 0.112759 0.993622
vn 0.000000 0.112759 0.993622
vn 0.000000 0.112759 0.993622
vn 0.000000 0.112759 0.993622
vn 0.000000 0.112759 0.993622
vn 0.000000 0.112759 0.993622
vn 0.000000 0.112759 0.993622
vn 0.000000 0.112759 0.993622
vn -0.000001 0.112760 0.993622
vn -0.000001 0.112760 0.993622
vn -0.000001 0.112760 0.993622
vn -0.000001 0.112760 0.993622
vn -0.000001 0.112760 0.993622
vn -0.000001 0.112760 0.993622
vn -0.000001 0.112760 0.993622
vn -0.000001 0.112760 0.993622
vn -0.000000 0.112760 0.993622
vn -0.000000 0.112760 0.993622
vn -0.000000 0.112760 0.993622
vn -0.000000 0.112760 0.993622
vn 0.000000 0.112759 0.993622
vn 0.000000 0.112759 0.993622
vn 0.000000 0.112759 0.993622
vn 0.000000 0.112759 0.993622
vn 0.000000 0.112759 0.993622
vn 0.000000 0.112759 0.993622
vn 0.000000 0.112759 0.993622
vn 0.000000 0.112759 0.993622
vn 0.000000 0.112760 0.993622
vn 0.000000 0.112760 0.993622
vn 0.000000 0.112760 0.993622
vn 0.000000 0.112760 0.993622
vn 0.000000 0.112760 0.993622
vn 0.000000 0.112760 0.993622
vn 0.000000 0.112760 0.993622
vn 0.000000 0.112760 0.993622
vn 0.000001 0.112760 0.993622
vn 0.000001 0.112760 0.993622
vn 0.000001 0.112760 0.993622
vn 0.000001 0.112760 0.993622
vn -0.554283 -0.822408 0.128123
vn -0.554283 -0.822408 0.128123
vn -0.554283 -0.822408 0.128123
vn -0.554283 -0.822408 0.128123
vn -0.175666 -0.972717 0.151539
vn -0.175666 -0.972716 0.151539
vn -0.175666 -0.972717 0.151539
vn -0.175666 -0.972716 0.151539
vn 0.175666 -0.972716 0.151539
vn 0.175666 -0.972716 0.151539
vn 0.175666 -0.972716 0.151539
vn 0.175666 -0.972716 0.151539
vn 0.554283 -0.822408 0.128123
vn 0.554283 -0.822408 0.128123
vn 0.554283 -0.822408 0.128123
vn 0.554283 -0.822408 0.128123
vn 0.927721 -0.368826 0.057460
vn 0.927721 -0.368826 0.057460
vn 0.927721 -0.368825 0.057460
vn 0.927721 -0.368825 0.057460
vn 0.927721 0.368826 -0.057459
vn 0.927721 0.368826 -0.057459
vn 0.927721 0.368826 -0.057459
vn 0.927721 0.368826 -0.057459
vn 0.554283 0.822408 -0.128124
vn 0.554283 0.822408 -0.128124
vn 0.554283 0.822408 -0.128124
vn 0.554283 0.822408 -0.128124
vn 0.175664 0.972717 -0.151540
vn 0.175664 0.972717 -0.151540
vn 0.175664 0.972717 -0.151540
vn 0.175664 0.972717 -0.151540
vn -0.175664 0.972717 -0.151540
vn -0.175664 0.972717 -0.151540
vn -0.175664 0.972717 -0.151540
vn -0.175664 0.972717 -0.151540
vn -0.554283 0.822408 -0.128124
vn -0.554283 0.822407 -0.128124
vn -0.554283 0.822408 -0.128124
vn -0.554283 0.822408 -0.128124
vn -0.927721 0.368826 -0.057459
vn -0.927721 0.368826 -0.057459
vn -0.927721 0.368826 -0.057459
vn -0.927721 0.368826 -0.057459
vn -0.927721 -0.368826 0.057460
vn -0.927721 -0.368826 0.057460
vn -0.927721 -0.368826 0.057460
vn -0.927721 -0.368826 0.057460
vn -0.666420 -0.032842 0.744853
vn -0.666420 -0.032842 0.744853
vn -0.666420 -0.032842 0.744853
vn -0.666420 -0.032842 0.744853
vn -0.666420 -0.032842 0.744853
vn -0.000247 0.716559 -0.697526
vn -0.000247 0.716559 -0.697526
vn -0.000247 0.716559 -0.697526
vn -0.000247 0.716559 -0.697526
vn -0.000247 0.716559 -0.697526
vn -0.000247 0.716559 -0.697526
vn 0.680152 -0.033482 -0.732306
vn 0.680152 -0.033482 -0.732306
vn 0.680152 -0.033482 -0.732306
vn 0.680152 -0.033482 -0.732306
vn 0.680152 -0.033482 -0.732306
vn 0.000000 1.000000 0.000000
vn 0.000000 1.000000 0.000000
vn 0.000000 1.000000 0.000000
vn 0.000000 1.000000 0.000000
vn 0.999201 -0.039962 0.000000
vn 0.999201 -0.039962 0.000000
vn 0.999201 -0.039962 0.000000
vn 0.999201 -0.039962 0.000000
vn -0.999201 -0.039962 0.000000
vn -0.999201 -0.039962 0.000000
vn -0.999201 -0.039962 0.000000
vn -0.999201 -0.039962 0.000000
vn 0.680152 -0.033482 0.732306
vn 0.680152 -0.033482 0.732306
vn 0.680152 -0.033482 0.732306
vn 0.680152 -0.033482 0.732306
vn 0.680152 -0.033482 0.732306
vn -0.000247 0.716559 0.697527
vn -0.000247 0.716559 0.697527
vn -0.000247 0.716559 0.697527
vn -0.000247 0.716559 0.697527
vn -0.000247 0.716559 0.697527
vn -0.000247 0.716559 0.697527
vn -0.666421 -0.032842 -0.744852
vn -0.666421 -0.032842 -0.744852
vn -0.666421 -0.032842 -0.744852
vn -0.666420 -0.032842 -0.744852
vn -0.666421 -0.032842 -0.744852
vn 0.721100 0.692831 0.000000
vn 0.721100 0.692831 0.000000
vn 0.721100 0.692831 0.000000
vn 0.721100 0.692831 0.000000
vn -0.721099 0.692832 0.000000
vn -0.721099 0.692832 0.000000
vn -0.721099 0.692832 0.000000
vn -0.721099 0.692832 0.000000
vn 0.671953 0.648611 -0.357466
vn 0.671953 0.648611 -0.357466
vn 0.671953 0.648611 -0.357466
vn 0.671957 0.648609 0.357465
vn 0.671957 0.648609 0.357465
vn 0.671956 0.648609 0.357465
vn -0.675286 0.651717 -0.345333
vn -0.675286 0.651717 -0.345333
vn -0.675286 0.651717 -0.345333
vn -0.675292 0.651711 0.345331
vn -0.675292 0.651711 0.345331
vn -0.675292 0.651711 0.345331
vn -0.000488 -0.780393 -0.625290
vn -0.000488 -0.780393 -0.625290
vn -0.000488 -0.780393 -0.625290
vn -0.000488 -0.780393 -0.625290
vn 0.734532 0.019213 -0.678302
vn 0.734532 0.019213 -0.678302
vn 0.734532 0.019213 -0.678302
vn 0.734532 0.019213 -0.678302
vn -0.742316 0.019199 -0.669775
vn -0.742316 0.019199 -0.669775
vn -0.742316 0.019199 -0.669775
vn -0.742316 0.019199 -0.669775
vn 0.000000 -1.000000 0.000000
vn 0.000000 -1.000000 0.000000
vn 0.000000 -1.000000 0.000000
vn 0.000000 -1.000000 0.000000
vn -0.999440 0.033447 0.000000
vn -0.999441 0.033447 0.000000
vn -0.999440 0.033447 0.000000
vn -0.999440 0.033447 0.000000
vn 0.999441 0.033447 0.000000
vn 0.999440 0.033447 0.000000
vn 0.999440 0.033447 0.000000
vn 0.999440 0.033447 0.000000
vn 0.057919 -0.042397 -0.997421
vn -0.058191 -0.042049 -0.997420
vn -0.053804 -0.046926 -0.997448
vn 0.053524 -0.047278 -0.997447
vn -0.091109 -0.005308 -0.995827
vn -0.091109 -0.005308 -0.995827
vn 0.091176 -0.005304 -0.995821
vn 0.091176 -0.005304 -0.995821
vn -0.734532 0.019213 0.678302
vn -0.734532 0.019213 0.678302
vn -0.734532 0.019213 0.678302
vn -0.734532 0.019213 0.678302
vn 0.000488 -0.780390 0.625292
vn 0.000488 -0.780390 0.625292
vn 0.000488 -0.780391 0.625292
vn 0.000488 -0.780390 0.625292
vn 0.742316 0.019199 0.669775
vn 0.742316 0.019199 0.669775
vn 0.742316 0.019199 0.669775
vn 0.742316 0.019199 0.669775
vn -0.999440 0.033447 0.000000
vn -0.999440 0.033447 0.000000
vn -0.999441 0.033447 0.000000
vn -0.999440 0.033447 0.000000
vn 0.000000 -1.000000 0.000000
vn 0.000000 -1.000000 0.000000
vn 0.000000 -1.000000 0.000000
vn 0.000000 -1.000000 0.000000
vn 0.999440 0.033447 0.000000
vn 0.999440 0.033447 0.000000
vn 0.999440 0.033447 0.000000
vn 0.999441 0.033447 0.000000
vn -0.091153 -0.005304 0.995823
vn -0.058036 -0.042250 0.997420
vn -0.053624 -0.047152 0.997447
vn -0.091153 -0.005304 0.995823
vn 0.058075 -0.042195 0.997420
vn 0.053705 -0.047051 0.997448
vn 0.091132 -0.005308 0.995825
vn 0.091132 -0.005308 0.995825
s off
g Headstone_07
usemtl Gravestone_010:initialShadingGroup
f 1/161/1 2/162/2 3/163/3 4/164/4
f 5/165/5 6/166/6 7/167/7 8/168/8
f 11/101/9 12/102/10 10/103/11 9/104/12
f 13/9/13 14/11/14 17/12/15 18/10/16
f 14/105/17 13/109/18 16/110/19 15/106/20
f 15/5/21 16/4/22 20/3/23 19/6/24
f 18/111/25 17/108/26 19/107/27 20/112/28
f 9/169/29 10/170/30 16/171/31 13/172/32
f 14/105/33 15/106/34 19/107/35 17/108/36
f 18/173/37 20/174/38 12/175/39 11/176/40
f 10/1/41 12/2/42 20/3/43 16/4/44
f 11/7/45 9/8/46 13/9/47 18/10/48
f 21/27/49 22/31/50 34/32/51 33/28/52
f 22/113/53 23/114/54 35/115/55 34/116/56
f 23/114/57 24/117/58 36/118/59 35/115/60
f 24/19/61 25/13/62 37/16/63 36/20/64
f 25/13/65 26/14/66 38/15/67 37/16/68
f 26/14/69 27/17/70 39/18/71 38/15/72
f 27/17/73 28/21/74 40/22/75 39/18/76
f 28/119/77 29/120/78 41/121/79 40/122/80
f 29/120/81 30/123/82 42/124/83 41/121/84
f 30/29/85 31/23/86 43/26/87 42/30/88
f 31/23/89 32/24/90 44/25/91 43/26/92
f 32/24/93 21/27/94 33/28/95 44/25/96
f 57/177/97 58/178/98 59/179/99 60/180/100 61/181/101 62/182/102 63/183/103 64/184/104 65/185/105 66/186/106 67/187/107 68/188/108
f 33/189/109 34/190/110 46/191/111 45/192/112
f 34/190/113 35/193/114 47/194/115 46/191/116
f 35/193/117 36/197/118 48/198/119 47/194/120
f 36/197/121 37/201/122 49/202/123 48/198/124
f 37/201/125 38/205/126 50/206/127 49/202/128
f 38/205/129 39/209/130 51/210/131 50/206/132
f 39/209/133 40/211/134 52/212/135 51/210/136
f 40/211/137 41/207/138 53/208/139 52/212/140
f 41/207/141 42/203/142 54/204/143 53/208/144
f 42/203/145 43/199/146 55/200/147 54/204/148
f 43/199/149 44/195/150 56/196/151 55/200/152
f 44/195/153 33/189/154 45/192/155 56/196/156
f 45/47/157 46/51/158 58/52/159 57/48/160
f 46/125/161 47/126/162 59/127/163 58/128/164
f 47/126/165 48/129/166 60/130/167 59/127/168
f 48/39/169 49/33/170 61/36/171 60/40/172
f 49/33/173 50/34/174 62/35/175 61/36/176
f 50/34/177 51/37/178 63/38/179 62/35/180
f 51/37/181 52/41/182 64/42/183 63/38/184
f 52/131/185 53/132/186 65/133/187 64/134/188
f 53/132/189 54/135/190 66/136/191 65/133/192
f 54/49/193 55/43/194 67/46/195 66/50/196
f 55/43/197 56/44/198 68/45/199 67/46/200
f 56/44/201 45/47/202 57/48/203 68/45/204
f 69/74/205 88/75/206 87/65/207 74/68/208 73/76/209
f 75/145/210 91/146/211 90/137/212 86/140/213 85/147/214 76/148/215
f 76/62/216 85/63/217 84/53/218 78/56/219 77/64/220
f 90/137/221 89/138/222 81/139/223 86/140/224
f 84/53/225 83/54/226 71/55/227 78/56/228
f 87/65/229 92/66/230 79/67/231 74/68/232
f 83/54/233 82/59/234 70/60/235 72/61/236 71/55/237
f 89/138/238 88/141/239 69/142/240 70/143/241 82/144/242 81/139/243
f 92/66/244 91/71/245 75/72/246 80/73/247 79/67/248
f 81/57/249 83/54/250 84/53/251 86/58/252
f 87/65/253 89/69/254 90/70/255 92/66/256
f 81/57/257 82/59/258 83/54/259
f 84/53/260 85/63/261 86/58/262
f 87/65/263 88/75/264 89/69/265
f 90/70/266 91/71/267 92/66/268
f 93/149/269 94/153/270 96/154/271 95/150/272
f 94/87/273 93/84/274 100/83/275 99/88/276
f 95/77/277 96/81/278 98/82/279 97/78/280
f 93/149/281 95/150/282 6/151/283 5/152/284
f 95/77/285 97/78/286 7/79/287 6/80/288
f 100/83/289 93/84/290 5/85/291 8/86/292
s 1
f 75/213/293 76/214/294 96/215/295 94/216/296
f 76/214/294 77/217/297 98/218/298 96/215/295
f 80/219/299 75/213/293 94/216/296 99/220/300
s off
f 102/89/301 101/93/302 104/94/303 103/90/304
f 103/155/305 104/159/306 106/160/307 105/156/308
f 105/95/309 106/99/310 108/100/311 107/96/312
f 102/89/313 103/90/314 3/91/315 2/92/316
f 103/155/317 105/156/318 4/157/319 3/158/320
f 105/95/321 107/96/322 1/97/323 4/98/324
s 2
f 72/221/325 70/222/326 104/223/327 101/224/328
f 70/222/326 69/225/329 106/226/330 104/223/327
f 69/225/329 73/227/331 108/228/332 106/226/330
