# This file uses centimeters as units for non-parametric coordinates.

mtllib Headstone_06.mtl
g default
v -23.463615 0.007006 9.995399
v 23.404861 0.007006 9.995399
v 23.404861 0.007006 -9.986801
v -23.463615 0.007006 -9.986801
v -0.063217 0.007006 -9.986801
v -0.063217 0.007006 9.995399
v 14.099236 32.952427 9.433289
v 7.772972 37.898663 9.558693
v -0.868866 39.709110 9.604599
v -9.510704 37.898663 9.558693
v -15.836967 32.952427 9.433289
v -18.152542 26.195744 9.261993
v -15.836967 19.439058 9.090675
v -9.510704 14.492826 8.965271
v -0.868866 12.682379 8.919380
v 7.772972 14.492826 8.965271
v 14.099236 19.439058 9.090675
v 16.414810 26.195744 9.261993
v 14.099236 32.775810 12.836937
v 7.772972 37.722046 12.962334
v -0.868866 39.532494 13.008240
v -9.510704 37.722046 12.962334
v -15.836967 32.775810 12.836937
v -18.152542 26.019127 12.665619
v -15.836967 19.262442 12.494316
v -9.510704 14.316210 12.368919
v -0.868866 12.505761 12.323006
v 7.772972 14.316210 12.368919
v 14.099236 19.262442 12.494316
v 16.414810 26.019127 12.665619
v 12.430305 31.553888 12.805946
v 6.809418 35.605610 12.908676
v -0.868866 37.088654 12.946274
v -8.547150 35.605610 12.908676
v -14.168037 31.553888 12.805946
v -16.225426 26.019127 12.665619
v -14.168037 20.484365 12.525291
v -8.547150 16.432638 12.422569
v -0.868866 14.949607 12.384956
v 6.809418 16.432638 12.422569
v 12.430305 20.484365 12.525291
v 14.487694 26.019127 12.665619
v 12.430305 31.614702 10.997696
v 6.809418 35.666424 11.100418
v -0.868866 37.149467 11.138023
v -8.547150 35.666424 11.100418
v -14.168037 31.614702 10.997696
v -16.225426 26.079941 10.857361
v -14.168037 20.545179 10.717041
v -8.547150 16.493452 10.614319
v -0.868866 15.010421 10.576721
v 6.809418 16.493452 10.614319
v 12.430305 20.545179 10.717041
v 14.487694 26.079941 10.857361
v 28.833584 0.059759 -14.604064
v 30.190063 0.072940 -13.373674
v 28.833584 0.059759 14.612655
v 30.190063 0.072940 13.382265
v -28.891907 0.059755 14.612614
v -30.248810 0.072940 13.382325
v -28.891907 0.059755 -14.604023
v -30.248810 0.072940 -13.373734
v 23.404861 0.007006 12.849814
v 24.636101 0.018970 14.205646
v -23.463615 0.007006 12.849759
v -24.695158 0.018973 14.205675
v -23.463615 0.007006 -12.841168
v -24.695158 0.018973 -14.197084
v 24.626833 0.018880 -14.196156
v 23.404861 0.007006 -12.850530
v 25.818768 89.930328 9.956853
v 25.398636 89.446114 10.371525
v 0.067415 76.576920 10.371420
v -0.066124 76.945503 9.984145
v 25.398636 89.446114 -10.362934
v 25.818768 89.930328 -9.948262
v -0.066124 76.945503 -9.975554
v 0.067415 76.576920 -10.362829
v -25.466690 71.107613 9.909492
v -25.453369 70.634804 10.370763
v -25.872622 71.055016 13.221183
v -25.455177 70.698738 13.366065
v 25.759760 89.920578 -13.240541
v 25.399862 89.501068 -13.378312
v -25.466690 71.107613 -9.837918
v -25.453842 70.651604 -10.362262
v 32.359734 91.011269 -13.747333
v 32.761021 90.654472 -13.932095
v 32.347267 91.009209 13.750279
v 32.761021 90.654472 13.940693
v 31.282621 90.833267 -14.765568
v 31.402002 90.448837 -15.164519
v 31.272741 90.831635 14.743871
v 31.402000 90.448837 15.173116
v 26.829704 90.097397 14.361711
v 26.638247 89.687775 14.731487
v -32.456730 70.201851 13.775054
v -32.818054 69.778610 13.939509
v -32.463436 70.200989 -13.769450
v -32.818054 69.778610 -13.930912
v -31.349464 70.345329 14.770873
v -31.469881 69.942375 15.173632
v -31.354256 70.344711 -14.776723
v -31.469881 69.942375 -15.165034
v -26.883154 70.924065 -14.348269
v -26.684570 70.549416 -14.721258
v 25.769310 89.922157 13.236009
v 25.399862 89.501068 13.377576
v -26.886896 70.923584 14.344257
v -26.684570 70.549416 14.729850
v -25.868303 71.055573 -13.214287
v -25.455231 70.700630 -13.368742
v 26.807493 90.093719 -14.373766
v 26.628923 89.686249 -14.722031
vt 0.004711 0.783451
vt 0.003716 0.744200
vt 0.023488 0.743174
vt 0.024483 0.782425
vt 0.002721 0.704950
vt 0.022493 0.703924
vt 0.005439 0.812184
vt 0.025211 0.811158
vt 0.001992 0.676217
vt 0.021764 0.675191
vt 0.033304 0.563965
vt 0.032309 0.603215
vt 0.012537 0.602189
vt 0.013532 0.562939
vt 0.031314 0.642466
vt 0.011541 0.641440
vt 0.034032 0.535232
vt 0.014260 0.534206
vt 0.030585 0.671199
vt 0.010813 0.670173
vt 0.051508 0.804455
vt 0.052323 0.772302
vt 0.062827 0.772656
vt 0.062012 0.804808
vt 0.053138 0.740150
vt 0.063642 0.740504
vt 0.050911 0.827991
vt 0.061415 0.828345
vt 0.053735 0.716613
vt 0.064239 0.716967
vt 0.042522 0.740150
vt 0.043337 0.772302
vt 0.032833 0.772656
vt 0.032018 0.740504
vt 0.044153 0.804455
vt 0.033648 0.804808
vt 0.041926 0.716613
vt 0.031421 0.716967
vt 0.044749 0.827991
vt 0.034245 0.828345
vt 0.978598 0.412152
vt 0.981278 0.414898
vt 0.962040 0.414593
vt 0.961198 0.412523
vt 0.964197 0.001867
vt 0.980779 0.001867
vt 0.956321 0.001936
vt 0.953276 0.411656
vt 0.969640 0.831921
vt 0.972686 0.829272
vt 0.990151 0.829557
vt 0.989254 0.831619
vt 0.987086 0.418890
vt 0.970505 0.418890
vt 0.994963 0.418959
vt 0.998008 0.828679
vt 0.009151 0.528142
vt 0.012395 0.001943
vt 0.167824 0.001943
vt 0.171068 0.528142
vt 0.005248 0.001867
vt 0.001992 0.526947
vt 0.174971 0.001867
vt 0.178227 0.526947
vt 0.169994 0.530214
vt 0.010257 0.530202
vt 0.703452 0.930425
vt 0.706689 0.525497
vt 0.862118 0.525497
vt 0.865355 0.930425
vt 0.699542 0.525420
vt 0.696283 0.931376
vt 0.869265 0.525420
vt 0.872524 0.931376
vt 0.864399 0.932884
vt 0.704390 0.932879
vt 0.698539 0.933714
vt 0.870184 0.933717
vt 0.295744 0.001867
vt 0.298810 0.521748
vt 0.281347 0.521429
vt 0.279162 0.001867
vt 0.303620 0.001936
vt 0.306675 0.522833
vt 0.278938 0.524242
vt 0.297987 0.524194
vt 0.304527 0.525212
vt 0.321825 0.521748
vt 0.324891 0.001867
vt 0.341527 0.001867
vt 0.339342 0.521429
vt 0.317074 0.001936
vt 0.314019 0.522824
vt 0.341751 0.524242
vt 0.322625 0.524185
vt 0.316042 0.525191
vt 0.090439 0.716613
vt 0.090172 0.766815
vt 0.070400 0.766815
vt 0.070667 0.716613
vt 0.090439 0.817016
vt 0.070667 0.817016
vt 0.097952 0.817016
vt 0.097686 0.766815
vt 0.117458 0.766815
vt 0.117724 0.817016
vt 0.097952 0.716613
vt 0.117724 0.716613
vt 0.135475 0.716613
vt 0.135694 0.761217
vt 0.125189 0.761217
vt 0.124971 0.716613
vt 0.135475 0.805822
vt 0.124971 0.805822
vt 0.142511 0.805822
vt 0.142730 0.761217
vt 0.153234 0.761217
vt 0.153016 0.805822
vt 0.142511 0.716613
vt 0.153016 0.716613
vt 0.480949 0.704927
vt 0.480949 0.840863
vt 0.497531 0.840863
vt 0.505407 0.848017
vt 0.507771 0.872396
vt 0.500624 0.880279
vt 0.345195 0.880279
vt 0.338048 0.872396
vt 0.340412 0.848017
vt 0.348289 0.840863
vt 0.364870 0.840863
vt 0.364870 0.704927
vt 0.364870 0.568598
vt 0.348235 0.568598
vt 0.340418 0.561500
vt 0.338048 0.537062
vt 0.345196 0.529182
vt 0.500624 0.529182
vt 0.507771 0.537062
vt 0.505407 0.561446
vt 0.497531 0.568598
vt 0.480949 0.568598
vt 0.524407 0.863605
vt 0.525249 0.866030
vt 0.518725 0.871922
vt 0.516485 0.870746
vt 0.544487 0.863672
vt 0.659202 0.863672
vt 0.678816 0.866005
vt 0.685403 0.871900
vt 0.687892 0.897873
vt 0.682041 0.904317
vt 0.522031 0.904278
vt 0.516246 0.897845
vt 0.513907 0.898545
vt 0.544053 0.716117
vt 0.660001 0.716117
vt 0.687570 0.870746
vt 0.679713 0.863605
vt 0.690148 0.898545
vt 0.541803 0.715341
vt 0.541807 0.863594
vt 0.544212 0.565749
vt 0.659843 0.565749
vt 0.662251 0.715341
vt 0.662248 0.863597
vt 0.541803 0.568189
vt 0.525163 0.566036
vt 0.518623 0.559876
vt 0.516403 0.534066
vt 0.522175 0.527824
vt 0.681912 0.527751
vt 0.687827 0.534008
vt 0.685551 0.560005
vt 0.678968 0.566091
vt 0.662252 0.568189
vt 0.513910 0.533315
vt 0.516475 0.560988
vt 0.521069 0.525420
vt 0.682985 0.525420
vt 0.690145 0.533315
vt 0.687574 0.561042
vt 0.136624 0.546157
vt 0.160161 0.578810
vt 0.168776 0.623414
vt 0.160161 0.668018
vt 0.136624 0.700670
vt 0.104472 0.712622
vt 0.072320 0.700670
vt 0.048783 0.668018
vt 0.040168 0.623414
vt 0.048783 0.578810
vt 0.072320 0.546157
vt 0.104472 0.534206
vt 0.292663 0.547657
vt 0.321396 0.584407
vt 0.309101 0.590005
vt 0.285564 0.557352
vt 0.331913 0.634609
vt 0.317716 0.634609
vt 0.253412 0.534206
vt 0.253412 0.545401
vt 0.321396 0.684810
vt 0.309101 0.679213
vt 0.214162 0.547657
vt 0.221260 0.557352
vt 0.292663 0.721560
vt 0.285564 0.711865
vt 0.185429 0.584407
vt 0.197723 0.590005
vt 0.253412 0.735012
vt 0.253412 0.723817
vt 0.174911 0.634609
vt 0.189108 0.634609
vt 0.214162 0.721560
vt 0.221260 0.711865
vt 0.185429 0.684810
vt 0.197723 0.679213
vt 0.496595 0.001867
vt 0.632924 0.001867
vt 0.644506 0.521429
vt 0.497354 0.446670
vt 0.360659 0.001867
vt 0.349100 0.412152
vt 0.799444 0.076625
vt 0.946596 0.001867
vt 0.935014 0.521429
vt 0.798685 0.521429
vt 0.651188 0.111046
vt 0.662750 0.521429
vt 0.209772 0.002104
vt 0.224692 0.527184
vt 0.197019 0.522763
vt 0.185388 0.001867
vt 0.924150 0.931613
vt 0.939125 0.525657
vt 0.963505 0.525420
vt 0.951948 0.935140
vt 0.271521 0.001867
vt 0.256601 0.526947
vt 0.232163 0.527185
vt 0.243794 0.006297
vt 0.893635 0.934903
vt 0.878659 0.528947
vt 0.906457 0.525420
vt 0.918014 0.935140
vn 0.615930 0.786743 0.040824
vn 0.615930 0.786743 0.040824
vn 0.615930 0.786743 0.040824
vn 0.615930 0.786743 0.040824
vn 0.205041 0.977438 0.050720
vn 0.205041 0.977438 0.050720
vn 0.205041 0.977438 0.050720
vn 0.205041 0.977438 0.050720
vn -0.205041 0.977438 0.050720
vn -0.205041 0.977438 0.050720
vn -0.205041 0.977438 0.050720
vn -0.205041 0.977438 0.050720
vn -0.615930 0.786743 0.040824
vn -0.615930 0.786743 0.040824
vn -0.615930 0.786743 0.040824
vn -0.615930 0.786743 0.040824
vn -0.945986 0.323772 0.016801
vn -0.945986 0.323772 0.016801
vn -0.945986 0.323772 0.016801
vn -0.945986 0.323772 0.016801
vn -0.945986 -0.323772 -0.016801
vn -0.945986 -0.323772 -0.016801
vn -0.945986 -0.323772 -0.016801
vn -0.945986 -0.323772 -0.016801
vn -0.615929 -0.786743 -0.040824
vn -0.615929 -0.786743 -0.040824
vn -0.615929 -0.786743 -0.040824
vn -0.615929 -0.786743 -0.040824
vn -0.205041 -0.977438 -0.050720
vn -0.205041 -0.977438 -0.050720
vn -0.205041 -0.977438 -0.050720
vn -0.205041 -0.977438 -0.050720
vn 0.205041 -0.977438 -0.050720
vn 0.205041 -0.977438 -0.050720
vn 0.205041 -0.977438 -0.050720
vn 0.205041 -0.977438 -0.050720
vn 0.615930 -0.786743 -0.040825
vn 0.615929 -0.786743 -0.040824
vn 0.615930 -0.786743 -0.040825
vn 0.615930 -0.786743 -0.040825
vn 0.945986 -0.323772 -0.016801
vn 0.945986 -0.323772 -0.016801
vn 0.945986 -0.323772 -0.016801
vn 0.945986 -0.323772 -0.016801
vn 0.945986 0.323772 0.016801
vn 0.945986 0.323772 0.016801
vn 0.945986 0.323772 0.016801
vn 0.945986 0.323772 0.016801
vn 0.000000 -0.025345 0.999679
vn 0.000000 -0.025345 0.999679
vn 0.000000 -0.025345 0.999679
vn 0.000000 -0.025345 0.999679
vn 0.000000 -0.025345 0.999679
vn 0.000000 -0.025345 0.999679
vn 0.000000 -0.025345 0.999679
vn 0.000000 -0.025345 0.999679
vn 0.000000 -0.025345 0.999679
vn 0.000000 -0.025345 0.999679
vn 0.000000 -0.025345 0.999679
vn 0.000000 -0.025345 0.999679
vn -0.000002 -0.025347 0.999679
vn -0.000001 -0.025347 0.999679
vn -0.000001 -0.025347 0.999679
vn -0.000002 -0.025347 0.999679
vn -0.000001 -0.025347 0.999679
vn 0.000000 -0.025346 0.999679
vn 0.000000 -0.025346 0.999679
vn -0.000001 -0.025347 0.999679
vn 0.000000 -0.025346 0.999679
vn 0.000001 -0.025347 0.999679
vn 0.000001 -0.025347 0.999679
vn 0.000000 -0.025346 0.999679
vn 0.000001 -0.025347 0.999679
vn 0.000002 -0.025347 0.999679
vn 0.000002 -0.025347 0.999679
vn 0.000001 -0.025347 0.999679
vn 0.000002 -0.025347 0.999679
vn 0.000002 -0.025346 0.999679
vn 0.000002 -0.025346 0.999679
vn 0.000002 -0.025347 0.999679
vn 0.000002 -0.025346 0.999679
vn 0.000001 -0.025343 0.999679
vn 0.000001 -0.025343 0.999679
vn 0.000002 -0.025346 0.999679
vn 0.000001 -0.025343 0.999679
vn 0.000002 -0.025342 0.999679
vn 0.000002 -0.025342 0.999679
vn 0.000001 -0.025343 0.999679
vn 0.000002 -0.025342 0.999679
vn 0.000000 -0.025342 0.999679
vn 0.000000 -0.025342 0.999679
vn 0.000002 -0.025342 0.999679
vn 0.000000 -0.025342 0.999679
vn -0.000002 -0.025342 0.999679
vn -0.000002 -0.025342 0.999679
vn 0.000000 -0.025342 0.999679
vn -0.000002 -0.025342 0.999679
vn -0.000001 -0.025343 0.999679
vn -0.000001 -0.025343 0.999679
vn -0.000002 -0.025342 0.999679
vn -0.000001 -0.025343 0.999679
vn -0.000002 -0.025346 0.999679
vn -0.000002 -0.025346 0.999679
vn -0.000001 -0.025343 0.999679
vn -0.000002 -0.025346 0.999679
vn -0.000002 -0.025347 0.999679
vn -0.000002 -0.025347 0.999679
vn -0.000002 -0.025346 0.999679
vn -0.584860 -0.810676 -0.027264
vn -0.384734 -0.922506 -0.031024
vn -0.383908 -0.922850 -0.031036
vn -0.584860 -0.810676 -0.027264
vn -0.384734 -0.922506 -0.031024
vn 0.000000 -0.999435 -0.033610
vn 0.000000 -0.999435 -0.033610
vn -0.383908 -0.922850 -0.031036
vn 0.000000 -0.999435 -0.033610
vn 0.384734 -0.922506 -0.031024
vn 0.383908 -0.922850 -0.031036
vn 0.000000 -0.999435 -0.033610
vn 0.384734 -0.922506 -0.031024
vn 0.584860 -0.810676 -0.027264
vn 0.584860 -0.810676 -0.027264
vn 0.383908 -0.922850 -0.031036
vn 0.937368 -0.348143 -0.011709
vn 0.937368 -0.348143 -0.011709
vn 0.937368 -0.348143 -0.011709
vn 0.937368 -0.348143 -0.011709
vn 0.937368 0.348143 0.011709
vn 0.937368 0.348143 0.011709
vn 0.937368 0.348143 0.011709
vn 0.937368 0.348143 0.011709
vn 0.584861 0.810676 0.027264
vn 0.383908 0.922850 0.031037
vn 0.384735 0.922506 0.031025
vn 0.584861 0.810676 0.027264
vn 0.383908 0.922850 0.031037
vn 0.000000 0.999435 0.033612
vn 0.000000 0.999435 0.033612
vn 0.384735 0.922506 0.031025
vn 0.000000 0.999435 0.033612
vn -0.383908 0.922850 0.031037
vn -0.384735 0.922506 0.031025
vn 0.000000 0.999435 0.033612
vn -0.383908 0.922850 0.031037
vn -0.584861 0.810676 0.027264
vn -0.584861 0.810676 0.027264
vn -0.384735 0.922506 0.031025
vn -0.937368 0.348143 0.011709
vn -0.937368 0.348143 0.011709
vn -0.937368 0.348143 0.011709
vn -0.937368 0.348143 0.011709
vn -0.937368 -0.348143 -0.011709
vn -0.937368 -0.348143 -0.011709
vn -0.937368 -0.348143 -0.011709
vn -0.937368 -0.348143 -0.011709
vn 0.000000 -1.000000 0.000000
vn 0.000000 -1.000000 0.000000
vn 0.000000 -1.000000 0.000000
vn 0.000000 -1.000000 0.000000
vn 0.000000 -1.000000 0.000000
vn 0.000000 -1.000000 0.000000
vn 0.000000 -1.000000 0.000000
vn 0.000000 -1.000000 0.000000
vn 0.000000 -1.000000 0.000000
vn 0.000000 -1.000000 0.000000
vn 0.000000 -1.000000 0.000000
vn 0.000000 -1.000000 0.000000
vn 0.000000 -1.000000 0.000000
vn 0.000000 -1.000000 0.000000
vn 0.000000 -1.000000 0.000000
vn 0.000000 -1.000000 0.000000
vn 0.000000 -1.000000 0.000000
vn 0.000000 -1.000000 0.000000
vn 0.000000 -1.000000 0.000000
vn 0.000000 -1.000000 0.000000
vn 0.000000 -1.000000 0.000000
vn 0.000000 -1.000000 0.000000
vn -0.756828 0.653527 -0.010673
vn -0.756828 0.653527 -0.010673
vn -0.722167 0.677561 0.139235
vn -0.718339 0.678870 0.152066
vn -0.353598 0.701117 0.619196
vn -0.353598 0.701117 0.619196
vn -0.254676 0.697777 0.669513
vn -0.254722 0.697781 0.669492
vn -0.159970 0.686968 0.708861
vn -0.159970 0.686968 0.708861
vn -0.760465 0.649276 0.011621
vn -0.760464 0.649276 0.011621
vn -0.725937 0.670919 -0.151270
vn -0.729383 0.669906 -0.138658
vn -0.353598 0.701117 -0.619196
vn -0.353598 0.701117 -0.619196
vn -0.257160 0.713159 -0.652130
vn -0.257054 0.713168 -0.652162
vn -0.167600 0.717584 -0.676005
vn -0.167600 0.717584 -0.676005
vn 0.999453 0.033062 0.000581
vn 0.868909 0.491874 0.055291
vn 0.868909 0.491874 0.055291
vn 0.999517 0.031073 0.000346
vn 0.453380 0.742637 0.492887
vn 0.453380 0.742637 0.492887
vn 0.453380 0.742637 0.492887
vn 0.453380 0.742637 0.492887
vn -0.284622 0.692448 -0.662952
vn -0.310026 0.693330 -0.650521
vn 0.864371 0.499859 -0.054810
vn 0.999445 0.033304 -0.000595
vn 0.999518 0.031042 -0.000334
vn 0.864371 0.499859 -0.054810
vn 0.403129 0.723984 -0.559763
vn 0.403129 0.723984 -0.559763
vn 0.403129 0.723984 -0.559763
vn 0.403129 0.723984 -0.559763
vn 0.657650 0.753324 0.000176
vn 0.657650 0.753324 0.000176
vn 0.657650 0.753324 0.000176
vn 0.657650 0.753324 0.000176
vn 0.384138 0.743140 0.547888
vn 0.384138 0.743140 0.547888
vn 0.384138 0.743140 0.547888
vn 0.384138 0.743140 0.547888
vn -0.174882 0.682602 -0.709557
vn -0.174882 0.682602 -0.709557
vn -0.176026 0.705764 0.686230
vn -0.176026 0.705764 0.686230
vn -0.281947 0.712945 0.642040
vn -0.307069 0.713267 0.630047
vn -0.545040 0.666761 0.508293
vn -0.545040 0.666761 0.508293
vn -0.545040 0.666761 0.508293
vn -0.545040 0.666761 0.508293
vn -0.763199 0.646164 0.000082
vn -0.763199 0.646164 0.000082
vn -0.763199 0.646164 0.000082
vn -0.763199 0.646164 0.000082
vn -0.551225 0.657075 -0.514202
vn -0.551225 0.657075 -0.514202
vn -0.551225 0.657075 -0.514202
vn -0.551225 0.657075 -0.514202
vn -0.024907 0.710645 0.703110
vn -0.024907 0.710645 0.703110
vn -0.024907 0.710645 0.703110
vn -0.024907 0.710645 0.703110
vn -0.022123 0.698488 -0.715280
vn -0.022123 0.698488 -0.715279
vn -0.022123 0.698488 -0.715280
vn -0.022123 0.698488 -0.715280
vn 0.455456 0.739821 -0.495201
vn 0.455456 0.739821 -0.495201
vn 0.455456 0.739821 -0.495201
vn 0.455456 0.739821 -0.495201
vn 0.000917 -0.004806 0.999988
vn 0.001197 -0.004546 0.999989
vn 0.001197 -0.004546 0.999989
vn 0.000978 -0.004750 0.999988
vn 0.000978 -0.004750 -0.999988
vn 0.001197 -0.004546 -0.999989
vn 0.001197 -0.004546 -0.999989
vn 0.000918 -0.004806 -0.999988
vn 0.999597 -0.028371 0.000000
vn 0.999597 -0.028371 0.000000
vn 0.999597 -0.028371 0.000000
vn 0.999597 -0.028371 0.000000
vn -0.999321 -0.036833 0.000000
vn -0.999321 -0.036833 0.000000
vn -0.999321 -0.036833 0.000000
vn -0.999321 -0.036833 0.000000
vn -0.093957 -0.003621 0.995570
vn -0.093957 -0.003621 0.995570
vn -0.093957 -0.003621 0.995570
vn -0.093957 -0.003621 0.995570
vn 0.094579 -0.004617 0.995507
vn 0.094579 -0.004617 0.995507
vn 0.094579 -0.004617 0.995507
vn 0.094579 -0.004617 0.995507
vn -0.093957 -0.003622 -0.995570
vn -0.093957 -0.003622 -0.995570
vn -0.093957 -0.003622 -0.995570
vn -0.093957 -0.003622 -0.995570
vn 0.094578 -0.004617 -0.995507
vn 0.094578 -0.004617 -0.995507
vn 0.094578 -0.004617 -0.995507
vn 0.094578 -0.004617 -0.995507
vn -0.999752 0.022286 0.000000
vn -0.999752 0.022286 0.000000
vn -0.999752 0.022286 0.000000
vn -0.999752 0.022286 0.000000
vn 0.999603 0.028161 0.000001
vn 0.999603 0.028161 0.000001
vn -0.999752 0.022286 -0.000000
vn -0.999752 0.022286 -0.000000
vn -0.999752 0.022286 -0.000000
vn -0.999752 0.022286 -0.000000
vn 0.999603 0.028161 -0.000001
vn 0.999603 0.028161 -0.000001
vn -0.344837 0.938662 0.000000
vn -0.338825 0.940849 -0.000000
vn -0.338888 0.940827 -0.000000
vn -0.344924 0.938631 0.000000
vn -0.163046 0.986619 -0.000000
vn -0.163046 0.986619 -0.000000
vn -0.163046 0.986619 -0.000000
vn -0.163046 0.986619 -0.000000
vn -0.163046 0.986619 -0.000000
vn -0.163046 0.986619 -0.000000
vn -0.163046 0.986619 -0.000000
vn -0.163046 0.986619 -0.000000
vn 0.000606 -0.005097 -0.999987
vn 0.000606 -0.005097 -0.999987
vn -0.183472 0.983025 -0.000000
vn -0.183480 0.983023 -0.000000
vn 0.000606 -0.005097 0.999987
vn 0.000606 -0.005097 0.999987
vn -0.128504 0.991709 -0.000000
vn -0.128504 0.991709 -0.000000
vn -0.128504 0.991709 -0.000000
vn -0.128504 0.991709 -0.000000
vn -0.128504 0.991709 -0.000000
vn -0.128504 0.991709 -0.000000
vn -0.128504 0.991709 -0.000000
vn -0.128504 0.991709 -0.000000
vn 0.672660 -0.023675 -0.739572
vn 0.672660 -0.023675 -0.739572
vn 0.672661 -0.023675 -0.739572
vn 0.672661 -0.023675 -0.739572
vn 0.672660 -0.023675 0.739573
vn 0.672660 -0.023675 0.739573
vn 0.672660 -0.023675 0.739573
vn 0.672660 -0.023675 0.739573
vn -0.672206 -0.030713 0.739727
vn -0.672206 -0.030713 0.739727
vn -0.672206 -0.030713 0.739727
vn -0.672206 -0.030713 0.739727
vn -0.672206 -0.030713 -0.739727
vn -0.672206 -0.030713 -0.739727
vn -0.672206 -0.030713 -0.739727
vn -0.672206 -0.030713 -0.739727
vn -0.739495 0.012540 0.673046
vn -0.739495 0.012540 0.673046
vn -0.739495 0.012540 0.673046
vn -0.739495 0.012540 0.673046
vn 0.741006 0.015943 0.671309
vn 0.741006 0.015943 0.671309
vn 0.741006 0.015943 0.671309
vn 0.741006 0.015943 0.671309
vn 0.739622 0.015839 -0.672836
vn 0.739622 0.015839 -0.672836
vn 0.739622 0.015839 -0.672836
vn 0.739622 0.015839 -0.672836
vn -0.739494 0.012540 -0.673047
vn -0.739494 0.012540 -0.673047
vn -0.739494 0.012540 -0.673047
vn -0.739494 0.012540 -0.673047
s off
g Headstone_06
usemtl Gravestone_09:initialShadingGroup
f 7/15/1 8/19/2 20/20/3 19/16/4
f 8/97/5 9/98/6 21/99/7 20/100/8
f 9/98/9 10/101/10 22/102/11 21/99/12
f 10/7/13 11/1/14 23/4/15 22/8/16
f 11/1/17 12/2/18 24/3/19 23/4/20
f 12/2/21 13/5/22 25/6/23 24/3/24
f 13/5/25 14/9/26 26/10/27 25/6/28
f 14/103/29 15/104/30 27/105/31 26/106/32
f 15/104/33 16/107/34 28/108/35 27/105/36
f 16/17/37 17/11/38 29/14/39 28/18/40
f 17/11/41 18/12/42 30/13/43 29/14/44
f 18/12/45 7/15/46 19/16/47 30/13/48
f 43/183/49 44/184/50 45/185/51 46/186/52 47/187/53 48/188/54 49/189/55 50/190/56 51/191/57 52/192/58 53/193/59 54/194/60
f 19/195/61 20/196/62 32/197/63 31/198/64
f 20/196/65 21/199/66 33/200/67 32/197/68
f 21/199/69 22/203/70 34/204/71 33/200/72
f 22/203/73 23/207/74 35/208/75 34/204/76
f 23/207/77 24/211/78 36/212/79 35/208/80
f 24/211/81 25/215/82 37/216/83 36/212/84
f 25/215/85 26/217/86 38/218/87 37/216/88
f 26/217/89 27/213/90 39/214/91 38/218/92
f 27/213/93 28/209/94 40/210/95 39/214/96
f 28/209/97 29/205/98 41/206/99 40/210/100
f 29/205/101 30/201/102 42/202/103 41/206/104
f 30/201/105 19/195/106 31/198/107 42/202/108
f 31/35/109 32/39/110 44/40/111 43/36/112
f 32/109/113 33/110/114 45/111/115 44/112/116
f 33/110/117 34/113/118 46/114/119 45/111/120
f 34/27/121 35/21/122 47/24/123 46/28/124
f 35/21/125 36/22/126 48/23/127 47/24/128
f 36/22/129 37/25/130 49/26/131 48/23/132
f 37/25/133 38/29/134 50/30/135 49/26/136
f 38/115/137 39/116/138 51/117/139 50/118/140
f 39/116/141 40/119/142 52/120/143 51/117/144
f 40/37/145 41/31/146 53/34/147 52/38/148
f 41/31/149 42/32/150 54/33/151 53/34/152
f 42/32/153 31/35/154 43/36/155 54/33/156
f 6/121/157 1/122/158 65/123/159 66/124/160 59/125/161 60/126/162 62/127/163 61/128/164 68/129/165 67/130/166 4/131/167 5/132/168 3/133/169 70/134/170 69/135/171 55/136/172 56/137/173 58/138/174 57/139/175 64/140/176 63/141/177 2/142/178
s 1
f 71/85/179 72/81/180 108/80/181 107/86/182
s 2
f 72/167/183 71/163/184 74/156/185 73/161/186
f 73/161/186 74/156/185 79/147/187 80/162/188
s 3
f 75/91/189 76/94/190 83/95/191 84/88/192
s 4
f 76/164/193 75/176/194 78/165/195 77/157/196
f 77/157/196 78/165/195 86/166/197 85/148/198
s 5
f 80/41/199 79/42/200 81/43/201 82/44/202
s off
f 82/143/203 81/144/204 109/145/205 110/146/206
s 3
f 84/88/192 83/95/191 113/96/207 114/93/208
s 6
f 85/49/209 86/50/210 112/51/211 111/52/212
s off
f 87/172/213 88/180/214 92/181/215 91/173/216
f 88/60/217 87/65/218 89/66/219 90/57/220
f 90/179/221 89/171/222 93/170/223 94/177/224
s 3
f 91/173/225 92/181/226 114/182/208 113/174/207
s 1
f 94/177/227 93/170/228 95/169/229 96/178/230
f 96/84/230 95/87/229 107/86/182 108/80/181
s off
f 97/75/231 98/70/232 102/74/233 101/78/234
f 98/70/235 97/75/236 99/76/237 100/67/238
f 100/67/239 99/76/240 103/77/241 104/72/242
f 101/154/243 102/155/244 110/146/245 109/145/246
f 104/160/247 103/151/248 105/150/249 106/158/250
f 106/158/251 105/150/252 111/149/253 112/159/254
s 7
f 6/219/255 2/220/256 72/221/257 73/222/258
s 8
f 78/225/259 75/226/260 3/227/261 5/228/262
s off
f 90/57/263 58/58/264 56/59/265 88/60/266
f 100/67/267 62/68/268 60/69/269 98/70/270
f 57/231/271 94/232/272 96/233/273 64/234/274
f 102/235/275 59/236/276 66/237/277 110/238/278
f 92/239/279 55/240/280 69/241/281 114/242/282
f 61/243/283 104/244/284 106/245/285 68/246/286
f 63/79/287 108/80/288 72/81/289 2/82/290
s 5
f 82/44/202 65/45/291 1/46/292 80/41/199
s off
f 84/88/293 70/89/294 3/90/295 75/91/296
s 6
f 67/53/297 112/51/211 86/50/210 4/54/298
s 9
f 74/156/299 71/163/300 76/164/301 77/157/302
f 71/163/300 107/168/303 95/169/304 93/170/305 89/171/306 87/172/307 91/173/308 113/174/309 83/175/310 76/164/301
s 8
f 86/229/311 78/225/259 5/228/262 4/230/312
s 9
f 79/147/313 74/156/299 77/157/302 85/148/314
s 7
f 1/223/315 6/219/255 73/222/258 80/224/316
s 9
f 109/145/317 81/144/318 79/147/313 85/148/314 111/149/319 105/150/320 103/151/321 99/152/322 97/153/323 101/154/324
s off
f 56/59/325 55/63/326 92/64/327 88/60/328
f 57/61/329 58/58/330 90/57/331 94/62/332
f 60/69/333 59/73/334 102/74/335 98/70/336
f 61/71/337 62/68/338 100/67/339 104/72/340
f 63/79/341 64/83/342 96/84/343 108/80/344
f 66/47/345 65/45/346 82/44/347 110/48/348
f 67/53/349 68/55/350 106/56/351 112/51/352
f 69/92/353 70/89/354 84/88/355 114/93/356
