# This file uses centimeters as units for non-parametric coordinates.

mtllib 04_low.mtl
g default
v -50.272186 0.035245 22.036015
v 50.090946 0.035245 22.036015
v -50.272186 0.035245 -24.877354
v 50.090946 0.035245 -24.877354
v -43.479259 23.345600 18.860754
v -40.820972 25.614740 16.554626
v 40.639729 25.614740 16.554626
v 43.298023 23.345600 18.860754
v -40.820972 25.614740 -19.395966
v -43.479259 23.345600 -21.702093
v 40.460484 25.614740 -19.216703
v 43.298023 23.345600 -21.702093
v -21.769512 4.494577 25.023766
v 18.909535 4.494577 25.023766
v -21.769512 20.529934 22.973310
v 18.909535 20.529934 22.973310
v -21.769512 19.960079 18.516811
v 18.909535 19.960079 18.516811
v -21.769512 3.924721 20.567259
v 18.909535 3.924721 20.567259
v -19.583507 6.769676 25.023764
v 16.723530 6.769676 25.023764
v 16.723530 18.254831 22.973314
v -19.583507 18.254831 22.973314
v -19.583507 6.118542 23.505592
v 16.723530 6.118542 23.505592
v 16.723530 17.603697 21.455141
v -19.583507 17.603697 21.455141
v 23.423588 96.675278 -14.031879
v 8.284153 106.799171 -14.031879
v -10.429195 106.799171 -14.031879
v -25.568615 96.675278 -14.031879
v -31.351349 80.294472 -14.031879
v 29.206303 80.294472 -14.031879
v 23.423588 96.675278 11.190540
v 8.284153 106.799171 11.190540
v -10.429195 106.799171 11.190540
v -25.568615 96.675278 11.190540
v -31.351349 80.294472 11.190540
v 29.206303 80.294472 11.190540
v -26.213634 23.952024 -12.102840
v -26.213634 23.952024 9.261501
v 24.068592 23.952024 -12.102840
v 24.068592 23.952024 9.261501
v 27.655293 100.994957 -14.031879
v 27.655293 100.994957 11.190540
v 9.900532 111.718185 -14.031879
v 9.900532 111.718185 11.190540
v -12.045559 111.718185 -14.031879
v -12.045559 111.718185 11.190540
v -29.800312 100.994957 -14.031879
v -29.800312 100.994957 11.190540
v -36.582031 83.644394 -14.031879
v -36.582031 83.644394 11.190540
v 34.436985 83.644394 11.190540
v 34.436985 83.644394 -14.031879
v -30.556762 23.966438 -12.102840
v -30.556762 23.966438 9.261501
v 28.411717 23.966438 9.261501
v 28.411717 23.966438 -12.102840
v 23.423588 96.675278 -17.735739
v 8.284153 106.799171 -17.735739
v 9.900532 111.718185 -17.735739
v 27.655293 100.994957 -17.735739
v -10.429195 106.799171 -17.735739
v -12.045559 111.718185 -17.735739
v -25.568615 96.675278 -17.735739
v -29.800312 100.994957 -17.735739
v -31.351349 80.294472 -17.735739
v -36.582031 83.644394 -17.735739
v 29.206303 80.294472 -17.735739
v 34.436985 83.644394 -17.735739
v -26.213634 23.952024 -15.240149
v -30.556762 23.966438 -15.240149
v 24.068592 23.952024 -15.240149
v 28.411717 23.966438 -15.240149
v 23.423588 96.675278 14.894400
v 8.284153 106.799171 14.894400
v 27.655293 100.994957 14.894400
v 9.900532 111.718185 14.894400
v -10.429195 106.799171 14.894400
v -12.045559 111.718185 14.894400
v -25.568615 96.675278 14.894400
v -29.800312 100.994957 14.894400
v -31.351349 80.294472 14.894400
v -36.582031 83.644394 14.894400
v 29.206303 80.294472 14.894400
v 34.436985 83.644394 14.894400
v -26.213634 23.952024 12.398810
v -30.556762 23.966438 12.398810
v 24.068592 23.952024 12.398810
v 28.411717 23.966438 12.398810
vt 0.085202 0.312036
vt 0.347535 0.376646
vt 0.257541 0.403121
vt 0.098028 0.404798
vt 0.109727 0.417027
vt 0.245465 0.416000
vt 0.271916 0.830953
vt 0.010060 0.765644
vt 0.100059 0.739189
vt 0.259655 0.738054
vt 0.111723 0.726955
vt 0.247861 0.725784
vt 0.023806 0.266559
vt 0.006532 0.266666
vt 0.006748 0.204515
vt 0.024021 0.204701
vt 0.197471 0.267330
vt 0.180199 0.267103
vt 0.180414 0.205244
vt 0.197688 0.205179
vt 0.190434 0.113842
vt 0.190548 0.165021
vt 0.183486 0.163196
vt 0.183372 0.112416
vt 0.017161 0.165415
vt 0.017049 0.114236
vt 0.024102 0.112779
vt 0.024216 0.163559
vt 0.495747 0.978927
vt 0.495683 0.876665
vt 0.566029 0.876621
vt 0.566093 0.978882
vt 0.452271 0.978954
vt 0.452207 0.876693
vt 0.495673 0.861648
vt 0.566019 0.861604
vt 0.807991 0.884289
vt 0.808046 0.970909
vt 0.566103 0.993899
vt 0.495757 0.993943
vt 0.452197 0.861676
vt 0.452281 0.993971
vt 0.807983 0.871570
vt 0.808054 0.983629
vt 0.319818 0.979038
vt 0.249472 0.979083
vt 0.249407 0.876821
vt 0.319753 0.876777
vt 0.319827 0.994055
vt 0.249481 0.994100
vt 0.007509 0.971416
vt 0.007454 0.884797
vt 0.249397 0.861804
vt 0.319743 0.861760
vt 0.363229 0.876749
vt 0.363294 0.979010
vt 0.363303 0.994027
vt 0.007517 0.984136
vt 0.007446 0.872077
vt 0.363219 0.861732
vt 0.959948 0.286491
vt 0.983925 0.224363
vt 0.997788 0.226861
vt 0.970562 0.295383
vt 0.973449 0.003882
vt 0.985625 0.004415
vt 0.902394 0.322764
vt 0.906039 0.336280
vt 0.755332 0.217332
vt 0.777709 0.280041
vt 0.766888 0.288874
vt 0.741268 0.219665
vt 0.832811 0.320255
vt 0.828416 0.333540
vt 0.773735 0.005323
vt 0.761535 0.005385
vt 0.489650 0.215018
vt 0.510121 0.277847
vt 0.498445 0.285239
vt 0.475540 0.216894
vt 0.561397 0.321532
vt 0.556107 0.333739
vt 0.509459 0.003642
vt 0.497282 0.003520
vt 0.693792 0.285662
vt 0.717038 0.225607
vt 0.730930 0.227924
vt 0.704831 0.294091
vt 0.708202 0.004598
vt 0.720360 0.005124
vt 0.634517 0.323942
vt 0.638560 0.337026
vt 0.926417 0.994278
vt 0.926417 0.849485
vt 0.994098 0.849485
vt 0.994098 0.994278
vt 0.024080 0.187693
vt 0.180473 0.188237
vt 0.180140 0.284153
vt 0.023746 0.283608
vt 0.024095 0.106119
vt 0.183366 0.105955
vt 0.183509 0.169657
vt 0.024240 0.170219
vt 0.426442 0.025628
vt 0.426442 0.107368
vt 0.409825 0.107368
vt 0.409825 0.025628
vt 0.426442 0.119372
vt 0.409825 0.119372
vt 0.409825 0.013625
vt 0.426442 0.013625
vt 0.379567 0.106800
vt 0.379567 0.025060
vt 0.396184 0.025060
vt 0.396184 0.106800
vt 0.379567 0.013057
vt 0.396184 0.013057
vt 0.396184 0.118804
vt 0.379567 0.118804
vt 0.032241 0.257758
vt 0.171826 0.258243
vt 0.032394 0.213602
vt 0.171979 0.214088
vt 0.408102 0.774609
vt 0.465962 0.813476
vt 0.459736 0.832289
vt 0.391872 0.791107
vt 0.537581 0.813626
vt 0.543728 0.832465
vt 0.386102 0.711870
vt 0.366056 0.724649
vt 0.595604 0.775002
vt 0.611764 0.791568
vt 0.406217 0.496279
vt 0.389595 0.496300
vt 0.617867 0.712356
vt 0.637859 0.725219
vt 0.598656 0.496683
vt 0.615278 0.496773
vt 0.823164 0.816611
vt 0.881106 0.777865
vt 0.897301 0.794397
vt 0.829350 0.835437
vt 0.903237 0.715173
vt 0.923256 0.727993
vt 0.751545 0.816611
vt 0.745359 0.835437
vt 0.883574 0.499540
vt 0.900196 0.499595
vt 0.693604 0.777865
vt 0.677408 0.794397
vt 0.671472 0.715173
vt 0.651453 0.727993
vt 0.691135 0.499540
vt 0.674513 0.499595
vt 0.349907 0.763668
vt 0.267779 0.309873
vt 0.089276 0.832312
vt 0.007781 0.379172
vn 0.000000 -1.000000 0.000000
vn 0.000000 -1.000000 0.000000
vn 0.000000 -1.000000 0.000000
vn 0.000000 -1.000000 0.000000
vn -0.649241 0.760583 0.000000
vn -0.649241 0.760583 0.000000
vn -0.649241 0.760583 0.000000
vn -0.649241 0.760583 0.000000
vn 0.000000 0.712800 0.701367
vn 0.000000 0.712800 0.701368
vn 0.000000 0.712800 0.701367
vn 0.000000 0.712800 0.701367
vn 0.636705 0.771106 -0.001495
vn 0.636705 0.771106 -0.001495
vn 0.636705 0.771106 -0.001495
vn 0.636705 0.771106 -0.001495
vn 0.000733 0.726046 -0.687646
vn 0.000733 0.726046 -0.687646
vn 0.000733 0.726046 -0.687646
vn 0.000733 0.726046 -0.687646
vn 0.000000 0.134970 0.990850
vn 0.000000 0.134970 0.990850
vn 0.000000 0.134970 0.990850
vn 0.000000 0.134970 0.990850
vn 0.000000 1.000000 0.000000
vn 0.000000 1.000000 0.000000
vn 0.000000 1.000000 0.000000
vn 0.000000 1.000000 0.000000
vn 0.000000 0.134970 -0.990850
vn 0.000000 0.134970 -0.990850
vn 0.000000 0.134970 -0.990850
vn 0.000000 0.134970 -0.990850
vn 0.960066 0.279775 0.000000
vn 0.960066 0.279775 0.000000
vn 0.960066 0.279775 0.000000
vn 0.960066 0.279775 0.000000
vn -0.960066 0.279775 0.000000
vn -0.960066 0.279775 0.000000
vn -0.960066 0.279775 0.000000
vn -0.960066 0.279775 0.000000
vn 0.000000 0.175752 0.984435
vn 0.000000 0.175752 0.984435
vn 0.000000 0.175752 0.984435
vn 0.000000 0.175752 0.984435
vn 0.000000 0.991924 -0.126838
vn 0.000000 0.991924 -0.126838
vn 0.000000 0.991924 -0.126838
vn 0.000000 0.991924 -0.126838
vn 0.000000 -0.991924 0.126838
vn 0.000000 -0.991924 0.126838
vn 0.000000 -0.991924 0.126838
vn 0.000000 -0.991924 0.126838
vn 1.000000 0.000000 0.000000
vn 1.000000 0.000000 0.000000
vn 1.000000 0.000000 0.000000
vn 1.000000 0.000000 0.000000
vn -1.000000 0.000000 0.000000
vn -1.000000 0.000000 0.000000
vn -1.000000 0.000000 0.000000
vn -1.000000 0.000000 0.000000
vn 0.000000 0.036949 0.999317
vn 0.000000 0.036949 0.999317
vn 0.000000 0.038358 0.999264
vn 0.000000 0.038358 0.999264
vn 0.000000 0.036949 0.999317
vn 0.000000 0.036950 0.999317
vn 0.000000 0.038359 0.999264
vn 0.000000 0.038358 0.999264
vn 0.000000 0.036950 0.999317
vn 0.000000 0.036950 0.999317
vn 0.000000 0.038359 0.999264
vn 0.000000 0.038359 0.999264
vn 0.000000 0.036950 0.999317
vn 0.000000 0.036949 0.999317
vn 0.000000 0.038358 0.999264
vn 0.000000 0.038359 0.999264
vn 0.000000 0.919038 -0.394169
vn 0.000000 0.919038 -0.394169
vn 0.000000 0.919038 -0.394169
vn 0.000000 0.919038 -0.394169
vn -1.000000 0.000000 0.000000
vn -1.000000 0.000000 0.000000
vn -1.000000 0.000000 0.000000
vn -1.000000 0.000000 0.000000
vn 0.000000 -0.919038 0.394170
vn 0.000000 -0.919038 0.394170
vn 0.000000 -0.919038 0.394170
vn 0.000000 -0.919038 0.394170
vn 1.000000 0.000000 0.000000
vn 1.000000 0.000000 0.000000
vn 1.000000 0.000000 0.000000
vn 1.000000 0.000000 0.000000
vn 0.752950 0.658077 0.000000
vn 0.752950 0.658077 0.000000
vn 0.260756 0.965405 0.000000
vn 0.260756 0.965405 0.000000
vn 0.260756 0.965405 0.000000
vn 0.260756 0.965405 0.000000
vn -0.260757 0.965405 0.000000
vn -0.260757 0.965405 0.000000
vn -0.260757 0.965405 0.000000
vn -0.260757 0.965405 0.000000
vn -0.752950 0.658078 0.000000
vn -0.752950 0.658078 0.000000
vn -0.752950 0.658078 0.000000
vn -0.752950 0.658078 0.000000
vn -0.999835 0.018175 0.000000
vn -0.999835 0.018175 0.000000
vn 0.752950 0.658077 0.000000
vn 0.999835 0.018174 0.000000
vn 0.999835 0.018174 0.000000
vn 0.752950 0.658077 0.000000
vn 0.000000 0.000000 -1.000000
vn 0.000000 -0.025726 -0.999669
vn 0.000000 -0.025726 -0.999669
vn 0.000000 0.000000 -1.000000
vn 0.000000 0.000000 -1.000000
vn 0.000000 0.000000 -1.000000
vn 0.000000 -0.025726 0.999669
vn 0.000000 -0.025726 0.999669
vn 0.000000 0.000000 1.000000
vn 0.000000 0.000000 1.000000
vn 0.000000 0.000000 1.000000
vn 0.000000 0.000000 1.000000
vn -0.999835 0.018175 0.000000
vn -0.999835 0.018175 0.000000
vn -0.994942 -0.100452 0.000000
vn -0.994942 -0.100452 0.000000
vn 0.999835 0.018174 0.000000
vn 0.999835 0.018174 0.000000
vn 0.994942 -0.100452 0.000000
vn 0.994942 -0.100452 0.000000
vn 0.000000 -0.025726 -0.999669
vn 0.000000 -0.025726 -0.999669
vn 0.000000 -0.034218 -0.999414
vn 0.000000 -0.034218 -0.999414
vn 0.000000 -0.025726 0.999669
vn 0.000000 -0.025726 0.999669
vn 0.000000 -0.034218 0.999414
vn 0.000000 -0.034218 0.999414
vn -0.000000 0.000000 -1.000000
vn 0.000000 0.000000 -1.000000
vn 0.000000 0.000000 -1.000000
vn 0.000000 0.000000 -1.000000
vn 0.000000 0.000000 1.000000
vn 0.000000 0.000000 1.000000
vn 0.000000 0.000000 1.000000
vn 0.000000 0.000000 1.000000
vn 0.000000 0.000000 -1.000000
vn -0.000000 0.000000 -1.000000
vn -0.000000 0.000000 -1.000000
vn 0.000000 0.000000 -1.000000
vn 0.000000 0.000000 1.000000
vn 0.000000 0.000000 1.000000
vn 0.000000 0.000000 1.000000
vn 0.000000 0.000000 1.000000
vn -0.000000 0.000000 -1.000000
vn 0.000000 0.000000 -1.000000
vn 0.000000 0.000000 -1.000000
vn -0.000000 0.000000 -1.000000
vn 0.000000 0.000000 1.000000
vn 0.000000 0.000000 1.000000
vn 0.000000 0.000000 1.000000
vn 0.000000 0.000000 1.000000
vn 0.000000 0.000000 -1.000000
vn -0.012684 -0.036094 -0.999268
vn -0.008889 -0.025296 -0.999640
vn 0.000000 0.000000 -1.000000
vn -0.012684 -0.036094 0.999268
vn 0.000000 0.000000 1.000000
vn 0.000000 0.000000 1.000000
vn -0.008889 -0.025296 0.999641
vn 0.000000 0.000000 1.000000
vn 0.012684 -0.036094 0.999268
vn 0.008889 -0.025296 0.999640
vn 0.000000 0.000000 1.000000
vn 0.012684 -0.036094 -0.999268
vn -0.000000 0.000000 -1.000000
vn 0.000000 0.000000 -1.000000
vn 0.008889 -0.025296 -0.999640
vn -0.012684 -0.036094 -0.999268
vn -0.015629 -0.044476 -0.998888
vn -0.015629 -0.044476 -0.998888
vn -0.008889 -0.025296 -0.999640
vn -0.003319 -0.999995 0.000000
vn -0.003319 -0.999995 0.000000
vn -0.003319 -0.999995 0.000000
vn -0.003319 -0.999995 0.000000
vn -0.015629 -0.044476 0.998888
vn -0.012684 -0.036094 0.999268
vn -0.008889 -0.025296 0.999641
vn -0.015629 -0.044476 0.998888
vn 0.012684 -0.036094 0.999268
vn 0.015629 -0.044476 0.998888
vn 0.015629 -0.044476 0.998888
vn 0.008889 -0.025296 0.999640
vn 0.003319 -0.999995 0.000000
vn 0.003319 -0.999995 0.000000
vn 0.003319 -0.999995 0.000000
vn 0.003319 -0.999995 0.000000
vn 0.015629 -0.044476 -0.998888
vn 0.012684 -0.036094 -0.999268
vn 0.008889 -0.025296 -0.999640
vn 0.015629 -0.044476 -0.998888
vn -0.555876 -0.831265 0.000000
vn -0.555876 -0.831265 0.000000
vn -0.555876 -0.831265 0.000000
vn -0.555876 -0.831265 0.000000
vn 0.260756 0.965405 0.000000
vn 0.752950 0.658077 0.000000
vn 0.516988 0.855993 0.000000
vn 0.516988 0.855993 0.000000
vn 0.000000 -1.000000 0.000000
vn 0.000000 -1.000000 0.000000
vn 0.000000 -1.000000 0.000000
vn 0.000000 -1.000000 0.000000
vn -0.260757 0.965405 0.000000
vn 0.260756 0.965405 0.000000
vn 0.000000 1.000000 0.000000
vn 0.000000 1.000000 0.000000
vn 0.555876 -0.831265 0.000000
vn 0.555876 -0.831265 0.000000
vn 0.555876 -0.831265 0.000000
vn 0.555876 -0.831265 0.000000
vn -0.752950 0.658078 0.000000
vn -0.260757 0.965405 0.000000
vn -0.516988 0.855993 0.000000
vn -0.516988 0.855993 0.000000
vn 0.942967 -0.332885 0.000000
vn 0.999910 -0.013444 0.000000
vn 0.999847 -0.017489 0.000000
vn 0.942967 -0.332885 0.000000
vn -0.999835 0.018175 0.000000
vn -0.752950 0.658078 0.000000
vn -0.931382 0.364044 0.000000
vn -0.999815 0.019214 0.000000
vn -0.999910 -0.013444 0.000000
vn -0.942968 -0.332884 0.000000
vn -0.942968 -0.332884 0.000000
vn -0.999847 -0.017488 0.000000
vn 0.752950 0.658077 0.000000
vn 0.999835 0.018174 0.000000
vn 0.999815 0.019214 0.000000
vn 0.931382 0.364043 0.000000
vn 0.999910 -0.013444 0.000000
vn 0.995868 0.090811 0.000000
vn 0.995868 0.090811 0.000000
vn 0.999847 -0.017489 0.000000
vn -0.003319 -0.999995 0.000000
vn -0.003319 -0.999995 0.000000
vn -0.003319 -0.999995 0.000000
vn -0.003319 -0.999995 0.000000
vn -0.994942 -0.100452 0.000000
vn -0.999835 0.018175 0.000000
vn -0.999815 0.019214 0.000000
vn -0.994942 -0.100452 0.000000
vn -0.995868 0.090810 0.000000
vn -0.999910 -0.013444 0.000000
vn -0.999847 -0.017488 0.000000
vn -0.995868 0.090810 0.000000
vn 0.999835 0.018174 0.000000
vn 0.994942 -0.100452 0.000000
vn 0.994942 -0.100452 0.000000
vn 0.999815 0.019214 0.000000
vn 0.003319 -0.999995 0.000000
vn 0.003319 -0.999995 0.000000
vn 0.003319 -0.999995 0.000000
vn 0.003319 -0.999995 0.000000
vn -0.555876 -0.831265 0.000000
vn -0.555876 -0.831265 0.000000
vn -0.555876 -0.831265 0.000000
vn -0.555876 -0.831265 0.000000
vn 0.752950 0.658077 0.000000
vn 0.260756 0.965405 0.000000
vn 0.516988 0.855993 0.000000
vn 0.516988 0.855993 0.000000
vn 0.000000 -1.000000 0.000000
vn 0.000000 -1.000000 0.000000
vn 0.000000 -1.000000 0.000000
vn 0.000000 -1.000000 0.000000
vn 0.260756 0.965405 0.000000
vn -0.260757 0.965405 0.000000
vn 0.000000 1.000000 0.000000
vn 0.000000 1.000000 0.000000
vn 0.555876 -0.831265 0.000000
vn 0.555876 -0.831265 0.000000
vn 0.555876 -0.831265 0.000000
vn 0.555876 -0.831265 0.000000
vn -0.260757 0.965405 0.000000
vn -0.752950 0.658078 0.000000
vn -0.516988 0.855993 0.000000
vn -0.516988 0.855993 0.000000
vn 0.999910 -0.013444 0.000000
vn 0.942967 -0.332885 0.000000
vn 0.942967 -0.332885 0.000000
vn 0.999847 -0.017489 0.000000
vn -0.752950 0.658078 0.000000
vn -0.999835 0.018175 0.000000
vn -0.999815 0.019214 0.000000
vn -0.931382 0.364044 0.000000
vn -0.942968 -0.332884 0.000000
vn -0.999910 -0.013444 0.000000
vn -0.999847 -0.017488 0.000000
vn -0.942968 -0.332884 0.000000
vn 0.999835 0.018174 0.000000
vn 0.752950 0.658077 0.000000
vn 0.931382 0.364043 0.000000
vn 0.999815 0.019214 0.000000
vn 0.995868 0.090810 0.000000
vn 0.999910 -0.013444 0.000000
vn 0.999847 -0.017489 0.000000
vn 0.995868 0.090810 0.000000
vn -0.999835 0.018175 0.000000
vn -0.994942 -0.100452 0.000000
vn -0.994942 -0.100452 0.000000
vn -0.999815 0.019214 0.000000
vn -0.003319 -0.999995 0.000000
vn -0.003319 -0.999995 0.000000
vn -0.003319 -0.999995 0.000000
vn -0.003319 -0.999995 0.000000
vn -0.999910 -0.013444 0.000000
vn -0.995868 0.090810 0.000000
vn -0.995868 0.090810 0.000000
vn -0.999847 -0.017488 0.000000
vn 0.003319 -0.999995 0.000000
vn 0.003319 -0.999995 0.000000
vn 0.003319 -0.999995 0.000000
vn 0.003319 -0.999995 0.000000
vn 0.994942 -0.100452 0.000000
vn 0.999835 0.018174 0.000000
vn 0.999815 0.019214 0.000000
vn 0.994942 -0.100452 0.000000
s off
g Gravestone_04:gravestone_04
usemtl Gravestone_04:initialShadingGroup
f 3/93/1 4/94/2 2/95/3 1/96/4
f 5/9/5 6/11/6 9/12/7 10/10/8
f 6/11/9 5/9/10 8/4/11 7/5/12
f 7/5/13 8/4/14 12/3/15 11/6/16
f 10/10/17 9/12/18 11/6/19 12/3/20
f 1/8/21 2/160/22 8/4/23 5/9/24
f 6/11/25 7/5/26 11/6/27 9/12/28
f 10/10/29 12/3/30 4/2/31 3/157/32
f 2/1/33 4/158/34 12/3/35 8/4/36
f 3/7/37 1/159/38 5/9/39 10/10/40
f 25/27/41 26/24/42 27/23/43 28/28/44
f 15/19/45 16/16/46 18/97/47 17/98/48
f 19/99/49 20/100/50 14/13/51 13/18/52
f 14/13/53 20/14/54 18/15/55 16/16/56
f 19/17/57 13/18/58 15/19/59 17/20/60
f 13/18/61 14/13/62 22/121/63 21/122/64
f 14/13/65 16/16/66 23/123/67 22/121/68
f 16/16/69 15/19/70 24/124/71 23/123/72
f 15/19/73 13/18/74 21/122/75 24/124/76
f 21/101/77 22/102/78 26/24/79 25/27/80
f 22/21/81 23/22/82 27/23/83 26/24/84
f 23/103/85 24/104/86 28/28/87 27/23/88
f 24/25/89 21/26/90 25/27/91 28/28/92
f 46/45/93 45/48/94 47/55/95 48/56/96
f 48/56/97 47/55/98 49/34/99 50/33/100
f 50/33/101 49/34/102 51/30/103 52/29/104
f 52/29/105 51/30/106 53/31/107 54/32/108
f 46/45/109 55/46/110 56/47/111 45/48/112
f 29/70/113 34/69/114 33/62/115 32/61/116 31/67/117 30/73/118
f 39/77/119 40/86/120 35/85/121 36/91/122 37/81/123 38/78/124
f 54/32/125 53/31/126 57/37/127 58/38/128
f 56/47/129 55/46/130 59/51/131 60/52/132
f 33/62/133 34/69/134 43/75/135 41/65/136
f 40/86/137 39/77/138 42/83/139 44/89/140
f 61/125/141 62/126/142 63/127/143 64/128/144
f 78/141/145 77/142/146 79/143/147 80/144/148
f 62/126/149 65/129/150 66/130/151 63/127/152
f 81/147/153 78/141/154 80/144/155 82/148/156
f 65/129/157 67/133/158 68/134/159 66/130/160
f 83/151/161 81/147/162 82/148/163 84/152/164
f 67/133/165 69/137/166 70/138/167 68/134/168
f 85/153/169 83/151/170 84/152/171 86/154/172
f 77/142/173 87/145/174 88/146/175 79/143/176
f 71/131/177 61/125/178 64/128/179 72/132/180
f 69/137/181 73/139/182 74/140/183 70/138/184
f 41/105/185 42/106/186 58/107/187 57/108/188
f 89/155/189 85/153/190 86/154/191 90/156/192
f 87/145/193 91/149/194 92/150/195 88/146/196
f 44/113/197 43/114/198 60/115/199 59/116/200
f 75/135/201 71/131/202 72/132/203 76/136/204
f 29/70/205 30/73/206 62/74/207 61/71/208
f 47/55/209 45/48/210 64/54/211 63/60/212
f 30/73/213 31/67/214 65/68/215 62/74/216
f 49/34/217 47/55/218 63/60/219 66/41/220
f 31/67/221 32/61/222 67/64/223 65/68/224
f 51/30/225 49/34/226 66/41/227 68/35/228
f 32/61/229 33/62/230 69/63/231 67/64/232
f 53/31/233 51/30/234 68/35/235 70/36/236
f 34/69/237 29/70/238 61/71/239 71/72/240
f 45/48/241 56/47/242 72/53/243 64/54/244
f 33/62/245 41/65/246 73/66/247 69/63/248
f 41/105/249 57/108/250 74/111/251 73/112/252
f 57/37/253 53/31/254 70/36/255 74/43/256
f 43/75/257 34/69/258 71/72/259 75/76/260
f 56/47/261 60/52/262 76/59/263 72/53/264
f 60/115/265 43/114/266 75/117/267 76/118/268
f 36/91/269 35/85/270 77/88/271 78/92/272
f 46/45/273 48/56/274 80/57/275 79/49/276
f 37/81/277 36/91/278 78/92/279 81/82/280
f 48/56/281 50/33/282 82/42/283 80/57/284
f 38/78/285 37/81/286 81/82/287 83/79/288
f 50/33/289 52/29/290 84/40/291 82/42/292
f 39/77/293 38/78/294 83/79/295 85/80/296
f 52/29/297 54/32/298 86/39/299 84/40/300
f 35/85/301 40/86/302 87/87/303 77/88/304
f 55/46/305 46/45/306 79/49/307 88/50/308
f 42/83/309 39/77/310 85/80/311 89/84/312
f 54/32/313 58/38/314 90/44/315 86/39/316
f 58/107/317 42/106/318 89/109/319 90/110/320
f 40/86/321 44/89/322 91/90/323 87/87/324
f 44/113/325 59/116/326 92/119/327 91/120/328
f 59/51/329 55/46/330 88/50/331 92/58/332
