# This file uses centimeters as units for non-parametric coordinates.

mtllib Grave_02_Low.mtl
g default
v 0.320712 0.107984 -0.890332
v 0.024629 0.061222 -0.894544
v 0.025724 0.117917 0.840543
v 0.281786 0.106854 0.878486
v -0.205944 0.060167 0.763620
v -0.250639 0.060947 -0.848175
v 0.293718 0.127908 0.024753
v 0.031158 0.045644 -0.009782
v -0.193921 -0.008313 -0.023914
v 0.466756 0.005525 -0.881003
v 0.503776 0.008724 0.038278
v 0.448751 -0.044449 0.865580
v -0.444703 -0.059832 0.776818
v -0.422239 0.035811 -0.001952
v -0.425689 0.005407 -0.840775
v -0.501596 -0.204429 0.755065
v -0.522789 -0.179020 0.011408
v -0.463033 -0.213512 -0.808344
v 0.521210 -0.227338 0.001283
v 0.488040 -0.235664 0.836933
v 0.482418 -0.222541 -0.853752
v 0.008602 0.015654 -1.116482
v -0.009499 -0.190852 -1.129019
v 0.014676 -0.042192 1.016761
v -0.000027 -0.224243 0.999700
v -0.533827 -0.181160 0.352899
v -0.433667 -0.007529 0.355223
v -0.138171 -0.125321 0.335320
v 0.034902 -0.103611 0.368591
v 0.250950 0.031561 0.403161
v 0.518353 0.012819 0.419360
v 0.538398 -0.223540 0.389631
v 0.479039 -0.226144 -0.422897
v 0.493490 0.013402 -0.418662
v 0.255587 0.030047 -0.427828
v 0.032951 -0.005563 -0.450908
v -0.238385 0.065494 -0.444329
v -0.459738 0.045610 -0.419749
v -0.485872 -0.199884 -0.396564
v -0.270608 -0.190043 -1.125856
v -0.200029 0.038176 -1.076453
v -0.077188 0.006283 -0.851535
v -0.063451 -0.007563 -0.449003
v -0.057131 0.013592 -0.015664
v -0.033998 -0.125347 0.356671
v -0.071185 0.103813 0.812807
v -0.175351 -0.028297 0.964033
v -0.213217 -0.207441 0.977351
v 0.324722 -0.197656 1.013800
v 0.277754 -0.008713 0.995353
v 0.165853 0.119291 0.866490
v 0.153787 -0.041256 0.388219
v 0.174782 0.111268 0.010528
v 0.179456 0.015566 -0.439157
v 0.191581 0.114963 -0.908074
v 0.294723 0.032542 -1.042691
v 0.309538 -0.216673 -1.053721
vt 0.932775 0.240012
vt 0.858571 0.278955
vt 0.816961 0.210850
vt 0.853707 0.141444
vt 0.808873 0.311305
vt 0.805257 0.268467
vt 0.645484 0.294671
vt 0.646539 0.246633
vt 0.485521 0.282729
vt 0.485497 0.236013
vt 0.351073 0.273347
vt 0.349253 0.229274
vt 0.187720 0.264831
vt 0.185524 0.227253
vt 0.131022 0.214961
vt 0.178690 0.149772
vt 0.070400 0.164057
vt 0.162881 0.078876
vt 0.051480 0.421580
vt 0.113677 0.385402
vt 0.172626 0.496774
vt 0.154244 0.550004
vt 0.195732 0.349444
vt 0.202879 0.405011
vt 0.352896 0.371400
vt 0.352214 0.436791
vt 0.483827 0.386058
vt 0.480539 0.454643
vt 0.640456 0.398885
vt 0.634525 0.468780
vt 0.783528 0.467856
vt 0.800628 0.407220
vt 0.857405 0.447574
vt 0.781456 0.532633
vt 0.920615 0.501057
vt 0.798932 0.609110
vt 0.622432 0.631460
vt 0.626364 0.544090
vt 0.645820 0.356067
vt 0.809767 0.367978
vt 0.657153 0.158101
vt 0.683372 0.075748
vt 0.351106 0.042777
vt 0.346618 0.132226
vt 0.352402 0.330929
vt 0.191671 0.313671
vt 0.333303 0.522656
vt 0.315921 0.595720
vt 0.101085 0.309490
vt 0.027830 0.310639
vt 0.878222 0.379696
vt 0.949934 0.389390
vt 0.510953 0.050160
vt 0.488376 0.139522
vt 0.454412 0.613934
vt 0.469833 0.527577
vt 0.485858 0.342436
vn -0.319516 0.946878 -0.036483
vn -0.326563 0.943674 0.053252
vn -0.327831 0.941461 0.078603
vn -0.283125 0.956852 -0.065370
vn -0.082092 0.984879 0.152561
vn -0.140804 0.983555 -0.113110
vn -0.190240 0.981678 0.010813
vn -0.237711 0.971132 0.019903
vn 0.080010 0.996590 0.020167
vn 0.780511 0.624559 -0.027010
vn 0.811803 0.582339 -0.043086
vn 0.159842 0.986952 -0.019379
vn 0.121443 0.992533 0.011416
vn 0.091613 0.995134 0.036267
vn 0.770274 0.634048 0.068272
vn -0.422390 0.900475 0.103594
vn -0.359150 0.933139 0.016232
vn 0.058632 0.998219 -0.010970
vn 0.144960 0.977754 0.151603
vn 0.080005 0.996554 0.021912
vn -0.687147 0.726440 -0.010645
vn -0.934746 0.355315 -0.000972
vn -0.893043 0.448844 0.031831
vn -0.979273 0.198946 -0.038006
vn 0.993823 0.100857 0.046293
vn 0.997754 0.042034 -0.052150
vn 0.999071 0.006320 -0.042640
vn -0.180039 0.983656 0.002543
vn -0.096816 0.994027 -0.050370
vn 0.399946 0.370917 -0.838131
vn 0.045047 0.490353 -0.870359
vn -0.437756 0.583041 -0.684422
vn 0.044910 0.998899 0.013584
vn 0.492170 0.037648 -0.869685
vn 0.099172 0.097652 -0.990267
vn -0.590904 0.209831 -0.778976
vn 0.239389 0.336931 0.910588
vn -0.134642 0.984816 0.109588
vn -0.152362 0.987158 0.048001
vn -0.090203 0.331428 0.939159
vn -0.182199 0.983185 -0.012259
vn -0.405194 0.465734 0.786708
vn -0.072469 0.009809 0.997322
vn 0.374310 0.075756 0.924204
vn -0.452650 0.105169 0.885465
vn -0.861613 0.368433 0.349114
vn -0.564959 0.781989 0.263276
vn -0.145574 0.987345 -0.062920
vn 0.772525 0.579200 0.260254
vn 0.234968 0.967794 0.090357
vn 0.951077 0.126253 0.281981
vn 0.967214 0.008733 -0.253814
vn 0.840602 0.494410 -0.221241
vn 0.224072 0.974449 -0.015505
vn -0.769101 0.571852 -0.285426
vn 0.043957 0.997662 -0.052338
vn -0.947217 0.164743 -0.275027
s 1
g GraveDisturbed
usemtl initialShadingGroup
f 52/11/1 53/9/2 8/57/3 29/45/4
f 8/57/3 44/27/5 45/25/6 29/45/4
f 53/9/2 54/7/7 36/39/8 8/57/3
f 36/39/8 43/29/9 44/27/5 8/57/3
f 11/54/10 34/41/11 35/8/12 7/10/13
f 30/12/14 31/44/15 11/54/10 7/10/13
f 14/56/16 27/47/17 28/26/18 9/28/19
f 37/30/20 38/38/21 14/56/16 9/28/19
f 17/55/22 26/48/23 27/47/17 14/56/16
f 38/38/21 39/37/24 17/55/22 14/56/16
f 31/44/15 32/43/25 19/53/26 11/54/10
f 19/53/26 33/42/27 34/41/11 11/54/10
f 2/40/28 55/5/29 56/2/30 22/51/31
f 41/33/32 42/32/33 2/40/28 22/51/31
f 22/51/31 56/2/30 57/1/34 23/52/35
f 40/35/36 41/33/32 22/51/31 23/52/35
f 50/15/37 51/13/38 3/46/39 24/49/40
f 3/46/39 46/23/41 47/20/42 24/49/40
f 25/50/43 49/17/44 50/15/37 24/49/40
f 24/49/40 47/20/42 48/19/45 25/50/43
f 27/47/17 26/48/23 16/22/46 13/21/47
f 28/26/18 27/47/17 13/21/47 5/24/48
f 29/45/4 45/25/6 46/23/41 3/46/39
f 51/13/38 52/11/1 29/45/4 3/46/39
f 12/16/49 31/44/15 30/12/14 4/14/50
f 20/18/51 32/43/25 31/44/15 12/16/49
f 34/41/11 33/42/27 21/4/52 10/3/53
f 35/8/12 34/41/11 10/3/53 1/6/54
f 54/7/7 55/5/29 2/40/28 36/39/8
f 42/32/33 43/29/9 36/39/8 2/40/28
f 15/34/55 38/38/21 37/30/20 6/31/56
f 18/36/57 39/37/24 38/38/21 15/34/55
f 15/34/55 41/33/32 40/35/36 18/36/57
f 6/31/56 42/32/33 41/33/32 15/34/55
f 6/31/56 37/30/20 43/29/9 42/32/33
f 44/27/5 43/29/9 37/30/20 9/28/19
f 45/25/6 44/27/5 9/28/19 28/26/18
f 46/23/41 45/25/6 28/26/18 5/24/48
f 47/20/42 46/23/41 5/24/48 13/21/47
f 48/19/45 47/20/42 13/21/47 16/22/46
f 50/15/37 49/17/44 20/18/51 12/16/49
f 4/14/50 51/13/38 50/15/37 12/16/49
f 30/12/14 52/11/1 51/13/38 4/14/50
f 7/10/13 53/9/2 52/11/1 30/12/14
f 35/8/12 54/7/7 53/9/2 7/10/13
f 1/6/54 55/5/29 54/7/7 35/8/12
f 56/2/30 55/5/29 1/6/54 10/3/53
f 57/1/34 56/2/30 10/3/53 21/4/52
